<svg width="418" height="418" viewBox="0 0 418 418" fill="none" xmlns="http://www.w3.org/2000/svg">
<path d="M112.45 161.883V168.153H118.72V161.883V155.621H112.45V161.883Z" fill="#EBEBEB"/>
<path d="M118.72 124.288H112.45V130.558H118.72V124.288Z" fill="#EBEBEB"/>
<path d="M157.444 193.283H151.174V199.553H157.444V193.283Z" fill="#EBEBEB"/>
<path d="M118.72 136.82V143.081H112.45V149.351H118.72V155.621H124.99H131.252V161.883H137.522V155.621H143.784V149.351V143.081H137.522V149.351H131.252H124.99V143.081V136.82V130.55H118.72V136.82Z" fill="#EBEBEB"/>
<path d="M131.252 124.288H124.99V130.55H131.252H137.522V124.288H131.252Z" fill="#EBEBEB"/>
<path d="M159.45 174.665H162.819V168.395H159.45H156.09V174.665H159.45Z" fill="#EBEBEB"/>
<path d="M143.792 130.55H137.522V136.82H143.792V130.55Z" fill="#EBEBEB"/>
<path d="M187.657 155.621H181.387V161.891H187.657V155.621Z" fill="#EBEBEB"/>
<path d="M193.927 86.6848H187.657V92.9548H193.927V86.6848Z" fill="#EBEBEB"/>
<path d="M156.324 136.82V130.55H162.585V124.288H156.324V118.018H150.054V124.288H143.784V130.55H150.054V136.82V143.081V149.351V155.621H156.324V149.351V143.081H162.585V136.82H156.324Z" fill="#EBEBEB"/>
<path d="M187.657 199.486H193.919V193.216H187.657H181.387V199.486H187.657Z" fill="#EBEBEB"/>
<path d="M181.387 86.6848H175.117V92.9548H181.387V86.6848Z" fill="#EBEBEB"/>
<path d="M179.824 136.82V130.55H173.554V124.288H167.284V130.55V136.82H161.022V143.081H167.284H173.554V136.82H179.824Z" fill="#EBEBEB"/>
<path d="M215.195 124.288H208.925V130.558H215.195V124.288Z" fill="#EBEBEB"/>
<path d="M150.238 155.621H143.968V161.891H150.238V155.621Z" fill="#EBEBEB"/>
<path d="M175.117 118.018V111.748H181.387V105.486H187.657H193.919V99.2165H187.657V92.9548H181.387V99.2165H175.117V105.486H168.855V111.748H162.585V118.018H168.855H175.117Z" fill="#EBEBEB"/>
<path d="M175.117 161.883V155.621H181.387V149.351H175.117H168.855V155.621H162.585V161.883H168.855H175.117Z" fill="#EBEBEB"/>
<path d="M193.919 186.946V180.685H187.657H181.387V174.415H175.117V180.685H168.855V186.946H162.585H156.324V193.216H162.585H168.855H175.117V186.946H181.387V193.216H187.657V186.946H193.919Z" fill="#EBEBEB"/>
<path d="M168.855 92.9548V86.6848H162.585H156.324V92.9548H150.054V99.2165H156.324H162.585V92.9548H168.855Z" fill="#EBEBEB"/>
<path d="M168.855 99.2164H162.585V105.486H168.855V99.2164Z" fill="#EBEBEB"/>
<path d="M184.522 124.288H178.252V130.55V136.82V143.081H184.522H190.792V136.82H184.522V130.55H190.792V124.288H197.054V118.018H190.792V111.748H184.522V118.018V124.288Z" fill="#EBEBEB"/>
<path d="M162.594 105.486H156.324V111.756H162.594V105.486Z" fill="#EBEBEB"/>
<path d="M181.387 168.153V174.415H187.657H193.919V168.153H200.189H206.459V161.883H200.189H193.919H187.657V168.153H181.387Z" fill="#EBEBEB"/>
<path d="M215.195 143.081H208.925V149.351H215.195V143.081Z" fill="#EBEBEB"/>
<path d="M193.927 149.351H187.657V155.621H193.927V149.351Z" fill="#EBEBEB"/>
<path d="M209.585 130.55H203.324H197.054V136.82H203.324V143.081H209.585V136.82V130.55Z" fill="#EBEBEB"/>
<path d="M206.459 149.351H200.189V155.621H206.459V149.351Z" fill="#EBEBEB"/>
<path d="M137.522 187.072H156.332V161.875H131.135V168.153H124.99V174.415H131.135V180.685H124.99V186.955H131.135V187.072H131.252V193.216H124.99V205.756H131.252V199.486H137.522V187.072ZM151.5 166.707V182.373H135.833V166.707H151.5Z" fill="#EBEBEB"/>
<path d="M218.99 161.883H225.252V155.621H218.99H212.72H206.459V161.883H212.72H218.99Z" fill="#EBEBEB"/>
<path d="M218.99 136.82H225.252V130.55V124.288H218.99V130.55V136.82Z" fill="#EBEBEB"/>
<path d="M169.089 168.395H162.819V174.665V180.927H169.089V174.665V168.395Z" fill="#EBEBEB"/>
<path d="M231.522 161.883H225.252V168.153H231.522V161.883Z" fill="#EBEBEB"/>
<path d="M231.522 149.351V143.081H225.252V149.351V155.621H231.522V149.351Z" fill="#EBEBEB"/>
<path d="M118.72 193.216H112.45V199.486V205.756H118.72V199.486V193.216Z" fill="#EBEBEB"/>
<path d="M231.522 118.018V86.6848H200.189V118.018H231.522ZM204.887 113.32V91.3831H226.824V113.32H204.887Z" fill="#EBEBEB"/>
<path d="M222.117 96.0814H209.585V108.613H222.117V96.0814Z" fill="#EBEBEB"/>
<path d="M231.522 174.415H200.189V205.756H231.522V174.415ZM204.887 201.05V179.121H226.824V201.05H204.887Z" fill="#EBEBEB"/>
<path d="M222.117 183.82H209.585V196.351H222.117V183.82Z" fill="#EBEBEB"/>
<path d="M112.375 86.6848V118.018H143.708V86.6848H112.375ZM139.01 91.3831V113.32H117.04V91.3831H139.01Z" fill="#EBEBEB"/>
<path d="M134.303 96.0814H121.772V108.613H134.303V96.0814Z" fill="#EBEBEB"/>
<path d="M62.28 210.128C62.684 208.539 61.7238 206.924 60.1353 206.52C58.5468 206.116 56.9315 207.076 56.5275 208.665C56.1235 210.253 57.0837 211.868 58.6722 212.272C60.2607 212.676 61.876 211.716 62.28 210.128Z" fill="#EBEBEB"/>
<path d="M53.504 205.606C54.2613 204.791 55.1758 204.139 56.1923 203.688C57.2089 203.237 58.3062 202.997 59.4182 202.982C60.5301 202.967 61.6335 203.178 62.6617 203.602C63.6899 204.025 64.6215 204.653 65.4003 205.447C66.9134 206.977 69.2793 204.611 67.7662 203.098C66.6769 201.997 65.3783 201.126 63.947 200.536C62.5156 199.946 60.9805 199.648 59.4323 199.66C57.884 199.673 56.3539 199.995 54.9323 200.609C53.5107 201.222 52.2262 202.114 51.1548 203.232C49.6751 204.787 51.9908 207.161 53.504 205.606Z" fill="#EBEBEB"/>
<path d="M43.4051 191.795C47.9112 187.899 53.295 185.442 59.2891 185.425C65.2982 185.354 71.1079 187.578 75.5326 191.645C77.0959 193.116 79.4702 190.767 77.9068 189.295C72.8608 184.628 66.2297 182.052 59.356 182.089C52.4172 182.089 46.2475 184.94 41.0643 189.429C39.3923 190.834 41.7916 193.191 43.4135 191.795H43.4051Z" fill="#EBEBEB"/>
<path d="M47.3761 199.444C48.8811 197.768 50.7168 196.421 52.7678 195.488C54.8188 194.555 57.0407 194.057 59.2935 194.025C61.5464 193.993 63.7816 194.427 65.8584 195.301C67.9352 196.174 69.8087 197.469 71.361 199.102C72.8658 200.648 75.2316 198.266 73.7352 196.761C71.8749 194.815 69.6349 193.273 67.1538 192.228C64.6728 191.184 62.0038 190.661 59.3122 190.691C56.6205 190.72 53.9637 191.303 51.5064 192.402C49.0491 193.5 46.8437 195.092 45.027 197.079C43.5723 198.65 45.9131 201.024 47.3761 199.444Z" fill="#EBEBEB"/>
<path d="M190.692 47.1754C191.193 43.5138 186.018 40.4874 182.131 40.1781C180.275 40.0276 178.352 40.3119 176.597 39.7016C172.784 38.3724 171.263 33.4567 167.551 31.8934C164.776 30.723 161.574 31.7596 158.882 33.1139C156.19 34.4682 153.531 36.1737 150.522 36.366C147.905 36.5332 145.063 35.53 142.772 36.8425C141.1 37.7955 140.172 39.7601 138.592 40.9222C137.012 42.0842 135.047 42.3016 133.141 42.4019C131.235 42.5022 129.254 42.5273 127.523 43.3215C125.793 44.1157 124.347 45.9549 124.706 47.8275L190.692 47.1754Z" fill="#EBEBEB"/>
<path d="M90.823 109.14C91.2745 105.854 86.643 103.146 83.1486 102.87C81.4766 102.736 79.8046 102.987 78.1827 102.435C74.7718 101.248 73.4092 96.8423 70.0819 95.4378C67.5739 94.3844 64.7231 95.3207 62.3154 96.5329C59.9078 97.7451 57.5168 99.275 54.7914 99.4506C52.4423 99.601 49.9008 98.7316 47.8443 99.8769C46.3144 100.713 45.5202 102.494 44.1074 103.53C42.6945 104.567 40.9306 104.759 39.2168 104.859C37.5075 104.826 35.8068 105.11 34.2008 105.695C32.6458 106.406 31.3584 108.061 31.6928 109.742L90.823 109.14Z" fill="#F5F5F5"/>
<path d="M404.106 106.816C404.591 103.296 399.625 100.395 395.888 100.128C394.107 99.9855 392.26 100.261 390.571 99.6678C386.917 98.3971 385.454 93.6737 381.893 92.1438C379.226 91.0236 376.158 92.0184 373.575 93.3226C370.992 94.6267 368.434 96.2569 365.549 96.4492C363.041 96.6081 360.308 95.6717 358.109 96.9007C356.437 97.8119 355.601 99.7013 354.105 100.813C352.608 101.925 350.702 102.134 348.871 102.234C347.04 102.335 345.143 102.351 343.479 103.121C341.815 103.89 340.428 105.629 340.779 107.443L404.106 106.816Z" fill="#F5F5F5"/>
<path d="M396.649 398.822C396.649 398.939 312.631 399.04 209.008 399.04C105.386 399.04 21.3514 398.939 21.3514 398.822C21.3514 398.705 105.336 398.605 209 398.605C312.664 398.605 396.649 398.697 396.649 398.822Z" fill="#263238"/>
<path d="M351.705 362.047C352.53 362.441 353.266 362.997 353.871 363.682C354.475 364.367 354.936 365.167 355.225 366.034C355.794 367.777 355.954 369.628 355.693 371.443C355.3 374.954 353.302 378.499 351.153 381.3C348.202 378.725 347.517 374.219 347.316 371.92C346.999 368.275 348.637 361.503 351.705 362.047Z" fill="#1B952B"/>
<path d="M354.589 387.068C354.392 386.065 354.462 385.028 354.79 384.06C355.119 383.092 355.695 382.226 356.462 381.55C357.245 380.893 358.151 380.398 359.127 380.094C360.103 379.79 361.129 379.682 362.147 379.778C362.622 379.769 363.092 379.864 363.526 380.058C363.96 380.252 364.345 380.539 364.655 380.898C364.875 381.28 364.991 381.712 364.991 382.152C364.991 382.593 364.875 383.025 364.655 383.406C364.206 384.171 363.563 384.802 362.791 385.237C360.232 386.842 357.457 387.929 354.564 387.06" fill="#1B952B"/>
<path d="M350.802 397.852C350.818 397.611 350.851 397.37 350.903 397.133C351.003 396.623 351.12 395.971 351.262 395.186C351.591 393.014 352.272 390.91 353.277 388.957C354.318 387.007 355.859 385.368 357.741 384.209C358.313 383.859 358.925 383.579 359.564 383.373C359.736 383.317 359.912 383.273 360.09 383.239C360.151 383.228 360.213 383.228 360.274 383.239C359.425 383.53 358.607 383.905 357.833 384.359C356.01 385.537 354.517 387.16 353.494 389.074C352.512 391.008 351.819 393.076 351.438 395.211C351.262 396.047 351.12 396.69 351.003 397.142C350.962 397.385 350.895 397.624 350.802 397.852Z" fill="#263238"/>
<path d="M350.911 367.313C350.925 367.419 350.925 367.526 350.911 367.631C350.911 367.865 350.911 368.158 350.97 368.534C351.011 369.32 351.053 370.457 351.103 371.878C351.195 374.687 351.262 378.566 351.245 382.871C351.229 387.177 351.12 391.056 351.003 393.865C350.953 395.269 350.894 396.373 350.844 397.209C350.844 397.577 350.844 397.877 350.786 398.112C350.784 398.219 350.77 398.325 350.744 398.429C350.731 398.324 350.731 398.217 350.744 398.112C350.744 397.877 350.744 397.576 350.744 397.2C350.744 396.364 350.794 395.252 350.827 393.856C350.894 391.047 350.97 387.168 350.986 382.871C351.003 378.574 350.986 374.695 350.919 371.886C350.919 370.498 350.878 369.378 350.869 368.542C350.869 368.174 350.869 367.873 350.869 367.639C350.87 367.529 350.884 367.42 350.911 367.313Z" fill="#263238"/>
<path d="M349.448 389.233C349.09 387.106 348.231 385.094 346.942 383.364C345.652 381.634 343.97 380.236 342.033 379.285C341.046 378.817 339.759 378.507 338.939 379.243C338.12 379.979 338.312 381.291 338.714 382.32C339.587 384.449 341.073 386.271 342.985 387.553C344.897 388.835 347.146 389.518 349.448 389.517" fill="#1B952B"/>
<path d="M342.543 382.612C342.761 382.682 342.971 382.775 343.17 382.888C343.415 382.998 343.652 383.123 343.88 383.264C344.191 383.438 344.492 383.628 344.783 383.833C345.141 384.071 345.485 384.331 345.811 384.61C346.198 384.92 346.566 385.253 346.915 385.605C347.709 386.417 348.408 387.317 348.997 388.289C349.576 389.268 350.039 390.311 350.376 391.398C350.633 392.289 350.809 393.201 350.903 394.124C350.953 394.517 350.903 394.876 350.953 395.186C350.968 395.464 350.968 395.743 350.953 396.022C350.949 396.249 350.924 396.476 350.878 396.699C350.819 396.699 350.919 395.729 350.744 394.191C350.694 393.806 350.643 393.355 350.543 392.928C350.443 392.502 350.317 392.009 350.175 391.516C349.834 390.453 349.374 389.432 348.804 388.472C348.225 387.518 347.544 386.63 346.773 385.822C346.433 385.47 346.076 385.135 345.703 384.819C345.384 384.538 345.049 384.276 344.7 384.033C343.412 383.072 342.518 382.662 342.543 382.612Z" fill="#263238"/>
<path d="M127.122 398.831C126.876 398.05 126.683 397.254 126.545 396.448C125.68 392.631 124.387 388.923 122.691 385.396C122.303 384.675 121.957 383.933 121.655 383.172C122.17 383.813 122.607 384.511 122.959 385.254C124.831 388.751 126.143 392.519 126.846 396.423C127.024 397.213 127.117 398.02 127.122 398.831Z" fill="#263238"/>
<path d="M134.537 362.648C134.501 363.126 134.431 363.601 134.328 364.07C134.161 364.973 133.936 366.285 133.676 367.907C133.141 371.159 132.523 375.657 132.138 380.656C131.754 385.655 131.687 390.211 131.712 393.497C131.712 395.169 131.712 396.473 131.779 397.393C131.815 397.868 131.815 398.346 131.779 398.822C131.687 398.354 131.633 397.878 131.62 397.401C131.545 396.481 131.469 395.152 131.419 393.505C131.283 389.209 131.381 384.908 131.712 380.622C132.041 376.34 132.599 372.079 133.384 367.857C133.693 366.235 133.961 364.931 134.178 364.036C134.263 363.565 134.383 363.101 134.537 362.648Z" fill="#263238"/>
<path d="M146.442 383.473C146.012 384.174 145.546 384.852 145.046 385.505C143.944 387.137 142.988 388.863 142.187 390.663C141.402 392.47 140.784 394.345 140.339 396.264C140.194 397.073 140.007 397.874 139.779 398.663C139.765 397.834 139.852 397.006 140.038 396.197C140.771 392.258 142.398 388.54 144.795 385.329C145.261 384.642 145.815 384.018 146.442 383.473Z" fill="#263238"/>
<path d="M292.19 386.232C292.622 386.745 292.992 387.306 293.294 387.904C293.913 388.966 294.715 390.471 295.509 392.168C296.303 393.865 296.939 395.461 297.357 396.615C297.625 397.227 297.816 397.87 297.925 398.53C297.589 397.959 297.309 397.357 297.089 396.732C296.604 395.604 295.927 394.049 295.133 392.352C294.339 390.654 293.586 389.141 293.035 388.046C292.688 387.474 292.405 386.866 292.19 386.232Z" fill="#263238"/>
<path d="M307.573 370.967C307.536 371.335 307.463 371.699 307.355 372.053C307.18 372.831 306.954 373.809 306.678 374.979C306.126 377.487 305.449 380.882 304.939 384.71C304.429 388.539 304.195 392.042 304.103 394.567C304.062 395.771 304.028 396.774 304.003 397.568C304.015 397.938 303.987 398.308 303.919 398.672C303.856 398.307 303.825 397.938 303.827 397.568C303.827 396.858 303.786 395.829 303.827 394.559C303.878 391.248 304.121 387.943 304.555 384.66C304.988 381.374 305.613 378.117 306.427 374.904C306.745 373.675 307.029 372.689 307.263 372.012C307.326 371.653 307.43 371.302 307.573 370.967Z" fill="#263238"/>
<path d="M196.293 377.772C196.572 377.931 196.828 378.128 197.054 378.357C197.713 378.924 198.341 379.527 198.935 380.163C202.893 384.369 205.69 389.531 207.052 395.144C207.265 395.989 207.427 396.846 207.537 397.71C207.601 398.024 207.629 398.343 207.621 398.663C207.545 398.663 207.336 397.326 206.785 395.227C205.261 389.727 202.499 384.648 198.709 380.38C197.296 378.708 196.243 377.872 196.293 377.772Z" fill="#263238"/>
<path d="M210.781 368.877C210.816 369.272 210.816 369.669 210.781 370.064C210.781 370.9 210.781 371.995 210.781 373.291C210.781 376.016 210.889 379.778 211.249 383.925C211.608 388.071 212.16 391.791 212.628 394.475C212.854 395.754 213.046 396.824 213.197 397.652C213.291 398.038 213.347 398.433 213.364 398.831C213.223 398.458 213.111 398.075 213.03 397.685C212.837 396.95 212.595 395.871 212.327 394.533C210.931 387.542 210.308 380.418 210.471 373.291C210.471 371.92 210.555 370.783 210.622 370.055C210.635 369.658 210.688 369.263 210.781 368.877Z" fill="#263238"/>
<path d="M223.571 386.6C223.697 386.667 222.259 389.175 221.272 392.569C220.286 395.963 220.102 398.839 219.968 398.831C219.874 398.201 219.874 397.562 219.968 396.933C220.1 395.413 220.38 393.909 220.804 392.443C221.226 390.981 221.786 389.562 222.476 388.205C222.765 387.622 223.134 387.082 223.571 386.6Z" fill="#263238"/>
<path d="M52.6011 319.285H42.8951V396.339H52.6011V319.285Z" fill="#455A64"/>
<path d="M52.6095 396.331C52.6095 396.331 52.6095 396.197 52.6095 395.93V394.776C52.6095 393.748 52.6095 392.268 52.6095 390.345C52.6095 386.491 52.6095 380.923 52.5426 374.01C52.5426 360.174 52.4841 340.946 52.4506 319.285L52.668 319.502H42.8952L43.1125 319.285C43.0624 353.034 43.0206 382.261 42.9955 396.331L42.8952 396.239L50.0931 396.289H51.9658H52.6095C52.6095 396.289 52.4088 396.289 51.9992 396.289H50.1516L42.8952 396.339H42.8032V396.239C42.8032 382.169 42.7363 352.942 42.6778 319.193L42.8952 318.976H52.8268V319.193C52.8268 340.929 52.7516 360.199 52.7349 374.077C52.7349 380.965 52.6847 386.516 52.668 390.362C52.668 392.251 52.668 393.706 52.668 394.742V395.871C52.6178 396.214 52.6095 396.331 52.6095 396.331Z" fill="#263238"/>
<g opacity="0.3">
<path d="M52.6011 321.158H42.8951V324.368H52.6011V321.158Z" fill="black"/>
</g>
<path d="M259.101 319.285H249.396V396.339H259.101V319.285Z" fill="#455A64"/>
<path d="M259.101 396.331C259.101 396.331 259.101 396.197 259.101 395.93V394.776C259.101 393.748 259.101 392.268 259.101 390.345C259.101 386.491 259.101 380.923 259.035 374.01C259.035 360.174 258.984 340.946 258.943 319.285L259.16 319.502H249.396L249.613 319.285C249.554 353.034 249.513 382.261 249.487 396.331L249.396 396.239L256.593 396.289H258.458H259.101C259.101 396.289 258.901 396.289 258.491 396.289H256.652L249.396 396.339H249.295V396.239C249.295 382.169 249.228 352.942 249.178 319.193L249.396 318.976H259.319V319.193C259.319 340.929 259.252 360.199 259.227 374.077C259.227 380.965 259.177 386.516 259.16 390.362C259.16 392.251 259.16 393.706 259.16 394.742V395.871C259.11 396.214 259.101 396.331 259.101 396.331Z" fill="#263238"/>
<path d="M243.886 251.786H234.18V316.016H243.886V251.786Z" fill="#455A64"/>
<path d="M243.895 316.008C243.882 315.894 243.882 315.779 243.895 315.665V314.704C243.895 313.868 243.895 312.605 243.895 311.025C243.895 307.807 243.853 303.184 243.828 297.424C243.828 285.904 243.769 269.886 243.736 251.778L243.953 251.995H234.189C234.615 251.561 234.306 251.887 234.398 251.795V261.986C234.398 265.33 234.398 268.582 234.398 271.758C234.398 278.112 234.398 284.115 234.398 289.641C234.356 300.676 234.331 309.796 234.314 316.008L234.205 315.899L241.387 315.958H243.268H243.92H243.301H241.454L234.205 316.016H234.08V316.008C234.08 309.796 234.038 300.676 234.005 289.641C234.005 284.115 234.005 278.112 234.005 271.758C234.005 268.582 234.005 265.324 234.005 261.986V251.803C234.105 251.703 233.787 252.004 234.23 251.569H244.112V251.786C244.112 269.953 244.045 286.062 244.02 297.591C244.02 303.326 243.97 307.932 243.962 311.134C243.962 312.697 243.962 313.918 243.962 314.771C243.962 315.164 243.962 315.481 243.962 315.707C243.962 315.933 243.895 316.008 243.895 316.008Z" fill="#263238"/>
<path d="M71.1854 251.786H61.4794V316.016H71.1854V251.786Z" fill="#455A64"/>
<path d="M71.1937 316.008C71.1869 315.894 71.1869 315.779 71.1937 315.665C71.1937 315.431 71.1937 315.113 71.1937 314.704C71.1937 313.868 71.1937 312.605 71.1937 311.025C71.1937 307.807 71.1937 303.184 71.1269 297.424C71.1269 285.904 71.0683 269.886 71.0349 251.778L71.2523 251.995H61.4878C61.9141 251.561 61.6048 251.887 61.6968 251.795V261.986C61.6968 265.33 61.6968 268.587 61.6968 271.758C61.6968 278.112 61.6968 284.115 61.6968 289.641C61.6968 300.676 61.6299 309.796 61.6132 316.008L61.5045 315.899L68.6857 315.958H70.5667H71.2188H70.6002H68.7526L61.5045 316.016H61.4042V316.008C61.4042 309.796 61.354 300.676 61.3206 289.641C61.3206 284.115 61.3206 278.112 61.3206 271.758C61.3206 268.582 61.3206 265.324 61.3206 261.986V251.803C61.4209 251.703 61.1032 252.004 61.5463 251.569H71.4111V251.786C71.4111 269.953 71.3359 286.062 71.3108 297.591C71.3108 303.326 71.3108 307.932 71.2523 311.134C71.2523 312.697 71.2523 313.918 71.2523 314.771C71.2523 315.164 71.2523 315.481 71.2523 315.707C71.2523 315.933 71.1937 316.008 71.1937 316.008Z" fill="#263238"/>
<path d="M262.621 244.455H42.3267V254.738H262.621V244.455Z" fill="#455A64"/>
<path d="M262.621 254.738C262.621 254.738 262.621 254.529 262.621 254.111C262.621 253.693 262.621 253.066 262.621 252.221C262.621 250.549 262.621 247.966 262.621 244.455L262.68 244.522L42.3936 244.672L42.6109 244.455V254.738L42.3936 254.52L198.475 254.612L245.466 254.679H258.224H261.568H262.705H261.593H258.299H245.6L198.659 254.746L42.3267 254.98H42.1093V244.237H42.335L262.621 244.396H262.688V244.455C262.688 247.983 262.688 250.558 262.688 252.255C262.688 253.091 262.688 253.718 262.688 254.136C262.688 254.554 262.621 254.738 262.621 254.738Z" fill="#263238"/>
<path d="M263.19 259.879H42.8951V270.162H263.19V259.879Z" fill="#455A64"/>
<path d="M263.19 270.162C263.19 270.162 263.19 269.953 263.19 269.535C263.19 269.117 263.19 268.49 263.19 267.645C263.19 265.973 263.19 263.39 263.19 259.879L263.248 259.937L42.9704 260.096L43.1878 259.879V270.162L42.9704 269.944L198.968 270.028L245.96 270.087H258.717H262.061H263.198H262.094H258.801H246.093L199.152 270.153L42.9035 270.245H42.6862V259.662H42.9202L263.198 259.82H263.265V259.879C263.265 263.407 263.265 265.982 263.265 267.679C263.265 268.515 263.265 269.133 263.265 269.551C263.265 269.969 263.19 270.162 263.19 270.162Z" fill="#263238"/>
<path d="M263.19 275.872H42.8951V286.154H263.19V275.872Z" fill="#455A64"/>
<path d="M263.19 286.154C263.19 286.154 263.19 285.945 263.19 285.527C263.19 285.109 263.19 284.482 263.19 283.638C263.19 281.966 263.19 279.383 263.19 275.872L263.248 275.93L42.9704 276.089L43.1877 275.872V286.154L42.9704 285.937L199.06 286.029L246.052 286.096H258.809H262.153H263.29H262.186H258.892H246.185L199.244 286.163L42.9955 286.255H42.7781V275.654H43.0122L263.29 275.813H263.357V275.88C263.357 279.408 263.357 281.983 263.357 283.68C263.357 284.516 263.357 285.135 263.357 285.561C263.357 285.987 263.19 286.154 263.19 286.154Z" fill="#263238"/>
<path d="M263.19 291.864H42.8951V302.147H263.19V291.864Z" fill="#455A64"/>
<path d="M263.19 302.147C263.19 302.147 263.19 301.938 263.19 301.52C263.19 301.102 263.19 300.475 263.19 299.631C263.19 297.959 263.19 295.376 263.19 291.864L263.248 291.931L42.9704 292.082L43.1877 291.864V302.147L42.9704 301.93L199.06 302.022L246.052 302.089H258.809H262.153H263.29H262.186H258.892H246.185L199.244 302.155L42.9955 302.247H42.7781V291.647H43.0122L263.29 291.806H263.357V291.864C263.357 295.392 263.357 297.967 263.357 299.664C263.357 300.5 263.357 301.127 263.357 301.545C263.357 301.963 263.19 302.147 263.19 302.147Z" fill="#263238"/>
<path d="M267.202 310.875H33.3313V321.158H267.202V310.875Z" fill="#455A64"/>
<path d="M267.202 321.158C267.202 321.158 267.202 320.949 267.202 320.531C267.202 320.113 267.202 319.486 267.202 318.641C267.202 316.969 267.202 314.386 267.202 310.875L267.269 310.933L33.4065 311.092L33.6239 310.875V321.158L33.4065 320.94L199.085 321.024L248.986 321.091H262.537H266.065C266.86 321.091 267.278 321.091 267.278 321.091H266.09H262.504H249.003L199.16 321.158L33.3146 321.25H33.0972V310.658H33.3229L267.186 310.816H267.244V310.875C267.244 314.403 267.244 316.978 267.244 318.675C267.244 319.511 267.244 320.129 267.244 320.547C267.244 320.965 267.202 321.158 267.202 321.158Z" fill="#263238"/>
<g opacity="0.3">
<path d="M259.101 321.158H249.396V324.368H259.101V321.158Z" fill="black"/>
</g>
<path d="M140.707 192.548L138.609 206.082L133.208 218.405L125.208 213.297L122.357 206.107L119.974 200.072C119.974 200.072 111.522 202.111 108.153 194.22C106.531 190.407 103.823 182.281 101.465 174.891C100.241 171.056 100.508 166.9 102.212 163.252C103.917 159.604 106.934 156.733 110.661 155.212L111.422 154.894C119.891 151.976 127.097 157.536 129.772 166.071L140.757 192.564" fill="#A2675F"/>
<path d="M119.966 200.072C123.661 198.632 126.842 196.123 129.103 192.865C129.103 192.865 129.012 199.595 120.794 202.136L119.966 200.072Z" fill="#7A4A45"/>
<path d="M106.623 180.935C106.741 181.233 106.971 181.472 107.263 181.602C107.556 181.732 107.887 181.742 108.187 181.629C108.336 181.581 108.474 181.504 108.592 181.402C108.711 181.299 108.807 181.174 108.877 181.034C108.946 180.894 108.987 180.741 108.996 180.585C109.005 180.429 108.983 180.272 108.931 180.125C108.813 179.827 108.583 179.588 108.291 179.458C107.999 179.328 107.667 179.318 107.367 179.431C107.218 179.479 107.081 179.556 106.962 179.658C106.844 179.761 106.747 179.886 106.677 180.026C106.608 180.166 106.568 180.319 106.558 180.475C106.549 180.631 106.571 180.788 106.623 180.935Z" fill="#263238"/>
<path d="M104.5 177.683C104.701 177.775 105.336 176.789 106.523 176.287C107.71 175.786 108.889 176.028 108.956 175.828C109.023 175.627 108.739 175.527 108.237 175.401C107.549 175.24 106.827 175.295 106.172 175.56C105.537 175.822 105.001 176.278 104.642 176.864C104.391 177.324 104.375 177.65 104.5 177.683Z" fill="#263238"/>
<path d="M117.266 176.187C117.383 176.484 117.613 176.724 117.905 176.854C118.198 176.983 118.529 176.993 118.829 176.881C118.979 176.834 119.117 176.757 119.237 176.655C119.356 176.553 119.454 176.428 119.524 176.288C119.594 176.148 119.636 175.994 119.645 175.838C119.655 175.681 119.634 175.524 119.581 175.376C119.462 175.08 119.232 174.842 118.94 174.712C118.648 174.583 118.318 174.572 118.018 174.682C117.868 174.729 117.73 174.806 117.61 174.908C117.491 175.01 117.393 175.135 117.323 175.275C117.253 175.415 117.211 175.569 117.202 175.725C117.192 175.882 117.214 176.039 117.266 176.187Z" fill="#263238"/>
<path d="M116.497 172.341C116.689 172.45 117.391 171.505 118.653 171.163C119.916 170.82 121.036 171.163 121.161 170.97C121.287 170.778 120.986 170.653 120.493 170.469C119.828 170.263 119.117 170.263 118.453 170.469C117.79 170.659 117.205 171.054 116.781 171.597C116.455 171.974 116.405 172.291 116.497 172.341Z" fill="#263238"/>
<path d="M116.145 184.221C115.421 184.282 114.707 184.437 114.022 184.681C113.696 184.773 113.378 184.831 113.236 184.681C113.075 184.373 113.013 184.022 113.061 183.678C113.061 182.803 113.044 181.883 113.01 180.919C112.893 177.015 112.676 173.855 112.526 173.863C112.375 173.871 112.325 177.04 112.442 180.944C112.442 181.905 112.509 182.816 112.534 183.694C112.496 184.15 112.617 184.605 112.877 184.982C112.966 185.075 113.076 185.146 113.198 185.19C113.32 185.233 113.45 185.248 113.579 185.233C113.771 185.207 113.96 185.156 114.139 185.082C114.841 184.878 115.514 184.589 116.145 184.221Z" fill="#263238"/>
<path d="M114.156 167.141C114.415 167.426 115.569 166.765 117.073 166.305C118.578 165.846 119.899 165.804 119.966 165.469C119.966 165.294 119.657 165.06 119.063 164.934C118.278 164.797 117.472 164.839 116.705 165.06C115.939 165.28 115.233 165.671 114.641 166.205C114.198 166.632 114.039 167.008 114.156 167.141Z" fill="#263238"/>
<path d="M102.728 172.885C103.062 173.069 103.781 172.442 104.784 172.007C105.787 171.572 106.732 171.43 106.807 171.054C106.807 170.878 106.59 170.661 106.105 170.552C105.475 170.429 104.821 170.511 104.241 170.786C103.649 171.04 103.152 171.472 102.82 172.024C102.577 172.45 102.577 172.784 102.728 172.885Z" fill="#263238"/>
<path d="M131.494 172.216C131.611 172.107 136.293 168.362 138.35 173.888C140.406 179.414 134.462 180.325 134.395 180.166C134.328 180.007 131.494 172.216 131.494 172.216Z" fill="#A2675F"/>
<path d="M135.298 177.416C135.298 177.416 135.415 177.416 135.608 177.458C135.87 177.466 136.126 177.377 136.327 177.207C136.594 176.853 136.763 176.434 136.816 175.994C136.869 175.553 136.804 175.106 136.627 174.699C136.465 174.222 136.196 173.787 135.842 173.428C135.727 173.274 135.577 173.151 135.403 173.069C135.23 172.987 135.038 172.95 134.847 172.96C134.725 172.972 134.611 173.026 134.526 173.113C134.44 173.2 134.388 173.315 134.379 173.437C134.379 173.621 134.437 173.712 134.379 173.738C134.32 173.763 134.228 173.687 134.186 173.445C134.167 173.296 134.2 173.146 134.278 173.019C134.386 172.846 134.557 172.723 134.755 172.676C134.997 172.637 135.246 172.661 135.477 172.744C135.708 172.827 135.914 172.968 136.076 173.152C136.485 173.545 136.795 174.029 136.979 174.565C137.363 175.685 137.179 176.939 136.469 177.466C136.337 177.564 136.186 177.631 136.025 177.663C135.865 177.694 135.699 177.69 135.541 177.65C135.357 177.541 135.282 177.433 135.298 177.416Z" fill="#7A4A45"/>
<path d="M96.767 165.971C96.6378 165.4 96.68 164.804 96.8882 164.256C97.0963 163.709 97.4613 163.235 97.9374 162.895C97.4984 162.477 97.2147 161.922 97.133 161.322C97.0513 160.722 97.1765 160.111 97.488 159.592C97.7994 159.072 98.2785 158.674 98.8465 158.463C99.4144 158.252 100.037 158.24 100.613 158.43C100.463 158.021 100.412 157.581 100.466 157.148C100.519 156.715 100.675 156.301 100.92 155.94C101.165 155.579 101.492 155.282 101.875 155.072C102.257 154.863 102.684 154.747 103.121 154.735C102.893 154.263 102.832 153.727 102.949 153.216C103.065 152.704 103.352 152.248 103.762 151.921C104.172 151.593 104.68 151.415 105.205 151.414C105.729 151.414 106.238 151.591 106.649 151.918C106.77 151.331 107.021 150.779 107.384 150.302C107.748 149.826 108.213 149.437 108.747 149.165C109.281 148.893 109.869 148.744 110.468 148.73C111.067 148.716 111.662 148.837 112.208 149.084C113.16 148.279 114.375 147.851 115.621 147.882C116.868 147.913 118.06 148.4 118.971 149.251C119.887 148.949 120.872 148.927 121.801 149.186C122.729 149.445 123.56 149.974 124.188 150.706C124.78 150.516 125.412 150.486 126.019 150.619C126.626 150.751 127.188 151.041 127.648 151.46C128.107 151.879 128.448 152.412 128.636 153.004C128.824 153.597 128.853 154.228 128.719 154.836C129.12 154.889 129.503 155.034 129.839 155.259C130.175 155.485 130.455 155.785 130.656 156.135C130.857 156.486 130.975 156.879 131 157.283C131.025 157.687 130.957 158.091 130.801 158.464C131.284 158.502 131.747 158.677 132.136 158.967C132.525 159.257 132.824 159.651 132.999 160.103C133.173 160.556 133.217 161.048 133.124 161.525C133.031 162.001 132.805 162.441 132.473 162.794C133.309 162.56 134.069 163.488 134.145 164.358C134.107 165.225 134.023 166.09 133.894 166.949C133.894 167.668 134.086 168.37 134.119 169.089C134.146 169.765 134.025 170.437 133.766 171.061C133.506 171.685 133.113 172.244 132.615 172.701L132.824 172.81C133.25 173.445 132.481 174.323 131.712 174.314C130.947 174.204 130.234 173.866 129.664 173.345C128.91 172.894 128.23 172.33 127.649 171.673C127.365 171.335 127.198 170.915 127.174 170.474C127.149 170.034 127.269 169.598 127.515 169.231C126.979 169.23 126.453 169.088 125.99 168.82C125.526 168.551 125.141 168.166 124.873 167.702C124.346 166.77 123.991 165.75 123.828 164.692L122.825 160.069C121.823 160.44 120.738 160.529 119.689 160.327C118.64 160.125 117.666 159.64 116.873 158.924C116.616 159.323 116.277 159.664 115.878 159.923C115.479 160.181 115.03 160.352 114.56 160.423C114.09 160.494 113.61 160.464 113.153 160.335C112.695 160.207 112.271 159.982 111.907 159.676C111.954 160.782 111.578 161.865 110.856 162.705C110.135 163.545 109.12 164.079 108.02 164.199C108.697 165.235 107.108 167.108 106.122 167.86C105.31 168.329 104.368 168.52 103.438 168.404C103.438 168.404 102 170.31 100.788 170.327C99.5759 170.343 97.6782 169.591 97.9123 168.245C97.3566 167.588 96.9642 166.809 96.767 165.971Z" fill="#263238"/>
<path d="M131.085 158.33C131.071 158.654 130.986 158.971 130.834 159.258C130.744 159.403 130.622 159.526 130.477 159.616C130.332 159.705 130.168 159.761 129.998 159.776C129.79 159.801 129.579 159.769 129.388 159.684C129.196 159.598 129.032 159.463 128.911 159.291L128.711 158.991L128.552 159.317C128.413 159.567 128.211 159.776 127.966 159.922C127.721 160.069 127.441 160.149 127.156 160.153C126.833 160.138 126.523 160.025 126.266 159.829C126.009 159.634 125.818 159.364 125.718 159.057L125.626 158.723L125.383 158.965C125.238 159.108 125.065 159.221 124.876 159.297C124.686 159.373 124.484 159.411 124.28 159.409C123.951 159.407 123.631 159.298 123.369 159.099C122.917 158.756 122.817 158.397 122.767 158.414C122.716 158.43 122.767 158.832 123.21 159.25C123.497 159.521 123.869 159.686 124.263 159.718C124.518 159.735 124.774 159.7 125.016 159.615C125.257 159.531 125.479 159.398 125.668 159.225L125.325 159.133C125.427 159.515 125.644 159.856 125.947 160.11C126.25 160.363 126.624 160.518 127.018 160.552C127.412 160.585 127.806 160.497 128.148 160.298C128.49 160.1 128.762 159.801 128.928 159.442H128.568C128.735 159.67 128.962 159.846 129.223 159.953C129.484 160.059 129.77 160.091 130.048 160.044C130.26 160.004 130.46 159.917 130.632 159.788C130.805 159.659 130.945 159.492 131.043 159.3C131.361 158.723 131.11 158.297 131.085 158.33Z" fill="#455A64"/>
<path d="M134.044 163.196C134.002 163.196 133.919 163.43 133.559 163.664C133.323 163.827 133.043 163.914 132.757 163.914C132.47 163.914 132.19 163.827 131.954 163.664L131.77 163.513L131.687 163.739C131.583 163.99 131.416 164.211 131.202 164.379C130.988 164.547 130.735 164.658 130.466 164.7C130.155 164.734 129.841 164.672 129.566 164.523C129.292 164.373 129.069 164.144 128.928 163.864L128.761 163.513L128.543 163.831C128.488 163.913 128.42 163.986 128.343 164.048C128.169 164.192 127.955 164.278 127.73 164.294C127.506 164.311 127.281 164.257 127.089 164.14C126.918 164.023 126.783 163.861 126.697 163.673C126.612 163.484 126.58 163.276 126.604 163.07L126.662 162.652L126.303 162.87C125.89 163.115 125.399 163.19 124.932 163.079C124.56 162.995 124.225 162.793 123.979 162.502C123.771 162.226 123.596 161.925 123.46 161.607C123.441 161.795 123.46 161.985 123.518 162.165C123.575 162.345 123.67 162.511 123.795 162.652C124.049 163.011 124.418 163.273 124.84 163.396C125.117 163.48 125.407 163.506 125.695 163.475C125.982 163.443 126.26 163.354 126.512 163.212L126.236 163.02C126.194 163.302 126.232 163.591 126.346 163.852C126.459 164.114 126.644 164.338 126.88 164.5C127.145 164.674 127.46 164.758 127.777 164.742C128.094 164.725 128.397 164.608 128.644 164.408C128.754 164.314 128.852 164.208 128.936 164.09H128.552C128.709 164.431 128.965 164.717 129.286 164.911C129.607 165.105 129.979 165.199 130.354 165.18C130.729 165.161 131.09 165.031 131.39 164.805C131.69 164.58 131.916 164.269 132.038 163.915L131.77 163.99C131.932 164.108 132.117 164.192 132.312 164.236C132.508 164.281 132.71 164.285 132.907 164.249C133.215 164.215 133.506 164.09 133.743 163.889C134.044 163.497 134.069 163.196 134.044 163.196Z" fill="#455A64"/>
<path d="M103.789 154.284C103.908 154.056 104.066 153.853 104.258 153.682C104.388 153.573 104.539 153.493 104.702 153.446C104.864 153.399 105.035 153.386 105.203 153.408C105.371 153.43 105.533 153.486 105.678 153.574C105.823 153.661 105.949 153.778 106.047 153.916L106.247 154.192L106.297 153.849C106.357 153.491 106.506 153.153 106.731 152.868C106.956 152.583 107.25 152.36 107.585 152.219C107.994 152.061 108.442 152.036 108.866 152.149C109.289 152.262 109.666 152.506 109.942 152.846L110.193 153.155L110.293 152.771C110.405 152.398 110.597 152.054 110.858 151.765C111.118 151.476 111.439 151.248 111.798 151.099C112.186 150.945 112.607 150.89 113.021 150.94C113.436 150.989 113.832 151.142 114.172 151.383C114.455 151.58 114.694 151.833 114.875 152.127L115 152.328L115.192 152.185C115.65 151.86 116.203 151.696 116.764 151.722C117.324 151.748 117.86 151.961 118.286 152.328C118.642 152.668 118.893 153.103 119.01 153.581C119.127 154.06 119.105 154.562 118.946 155.028L118.829 155.337L119.147 155.262C119.854 155.112 120.592 155.244 121.203 155.63C121.673 155.93 122.038 156.368 122.248 156.884C122.417 157.342 122.505 157.825 122.507 158.313C122.507 158.313 122.574 158.188 122.591 157.929C122.624 157.549 122.573 157.166 122.441 156.809C122.243 156.233 121.865 155.738 121.362 155.396C121.031 155.168 120.658 155.008 120.265 154.925C119.872 154.842 119.466 154.837 119.071 154.911L119.28 155.153C119.517 154.576 119.558 153.938 119.396 153.336C119.234 152.733 118.878 152.201 118.384 151.821C117.89 151.441 117.284 151.234 116.661 151.232C116.037 151.229 115.43 151.432 114.933 151.809L115.251 151.868C115.034 151.533 114.749 151.249 114.415 151.032C114.015 150.747 113.549 150.567 113.061 150.51C112.573 150.453 112.078 150.521 111.623 150.706C111.204 150.883 110.831 151.153 110.532 151.494C110.232 151.836 110.013 152.241 109.892 152.679L110.252 152.603C109.956 152.236 109.558 151.964 109.108 151.822C108.658 151.68 108.176 151.675 107.723 151.806C107.27 151.937 106.866 152.2 106.561 152.56C106.257 152.921 106.066 153.364 106.013 153.832L106.264 153.765C106.121 153.584 105.938 153.439 105.729 153.34C105.52 153.241 105.291 153.192 105.06 153.197C104.72 153.21 104.395 153.346 104.149 153.582C103.998 153.722 103.883 153.897 103.814 154.092C103.781 154.209 103.781 154.284 103.789 154.284Z" fill="#455A64"/>
<path d="M119.774 182.892C119.573 182.959 120.116 184.288 119.372 185.692C118.628 187.097 117.157 187.532 117.216 187.724C117.274 187.916 117.642 187.849 118.244 187.624C119.023 187.314 119.669 186.74 120.066 186.002C120.45 185.293 120.543 184.462 120.325 183.686C120.15 183.084 119.866 182.842 119.774 182.892Z" fill="#263238"/>
<path d="M111.631 206.969L105.01 225.62L106.54 246.018L110.72 281.255C110.72 281.255 126.244 276.014 126.947 276.54C127.649 277.067 120.075 240.818 120.075 240.818L125.55 211.324L125.199 202.638L111.631 206.969Z" fill="#1B952B"/>
<path d="M111.631 206.969L104.35 223.689L89.3015 229.591L73.568 234.465L75.775 245.784C75.8841 246.334 76.1049 246.855 76.4235 247.316C76.7421 247.777 77.152 248.167 77.6276 248.464C78.1032 248.76 78.6346 248.955 79.1888 249.038C79.7429 249.12 80.3082 249.089 80.8496 248.944L94.167 245.366L106.573 244.798L113.027 229.8L111.631 206.969Z" fill="#1B952B"/>
<path d="M78.7094 229.808L79.8129 228.437C80.8988 228.427 81.973 228.662 82.9563 229.123C84.3972 230.307 85.4535 231.893 85.9909 233.679C86.1119 234.963 86.1119 236.257 85.9909 237.541L78.4669 229.808" fill="#A2675F"/>
<path d="M64.0376 221.682C64.0376 221.908 78.2496 236.964 78.2496 236.964L80.9248 239.606H89.452L72.8992 221.214L65.7598 219.993L64.0376 221.682Z" fill="#263238"/>
<path d="M121.68 255.13C121.553 254.967 121.444 254.79 121.354 254.604L120.518 253.049C119.799 251.695 118.779 249.705 117.592 247.197C116.18 244.298 114.924 241.326 113.83 238.293C113.517 237.41 113.258 236.508 113.052 235.593C112.946 235.114 112.871 234.628 112.827 234.139C112.827 233.654 112.827 233.16 112.827 232.667C112.827 230.686 112.827 228.638 112.927 226.539C113.027 223.881 113.161 221.314 113.32 218.873V218.748L113.437 218.698L117.843 216.758L117.893 217.143L114.549 216.7H114.264L114.407 216.457C116.58 212.729 118.386 209.61 119.682 207.378L121.178 204.87L121.588 204.218C121.629 204.138 121.683 204.065 121.747 204.001C121.721 204.086 121.685 204.167 121.638 204.243L121.279 204.929L119.866 207.504L114.733 216.658L114.591 216.382L117.935 216.8L118.645 216.883L117.993 217.176L113.604 219.132L113.729 218.948C113.579 221.39 113.445 223.964 113.345 226.606C113.27 228.696 113.219 230.736 113.236 232.709C113.236 233.202 113.236 233.687 113.236 234.172C113.272 234.639 113.342 235.103 113.445 235.56C113.643 236.459 113.891 237.347 114.189 238.218C115.368 241.637 116.697 244.622 117.859 247.122C119.021 249.621 119.974 251.611 120.652 252.974L121.421 254.562C121.521 254.745 121.607 254.935 121.68 255.13Z" fill="#263238"/>
<path d="M72.4227 229.808C72.4227 229.808 70.2658 231.363 70.3243 232.249C70.3249 232.639 70.4203 233.024 70.6024 233.369C70.7844 233.714 71.0476 234.01 71.3693 234.231C71.8709 234.398 73.359 235.167 73.359 235.167C73.359 235.167 72.0298 236.438 72.4227 237.767C72.4952 238.122 72.6462 238.456 72.8647 238.746C73.0831 239.035 73.3634 239.272 73.685 239.439C73.7156 240.364 73.9022 241.276 74.2368 242.139C74.7447 242.828 75.4942 243.3 76.3352 243.46C76.8041 244.412 77.364 245.316 78.0072 246.16C78.6531 246.76 79.4563 247.163 80.3229 247.322C80.3229 247.322 82.3126 247.548 83.3576 246.829C84.0673 246.472 84.6587 245.918 85.0606 245.232C85.4625 244.547 85.6579 243.76 85.6231 242.967C85.6231 242.967 90.3716 240.592 90.4218 239.38C90.4719 238.168 89.9285 237.784 89.9285 237.784L87.5543 238.218C87.5543 238.218 87.2199 236.956 86.5093 236.839C85.7987 236.722 77.1294 238.829 77.1294 238.829C77.1294 238.829 83.0315 237.892 83.1987 236.73C83.3659 235.568 83.4161 234.582 82.5299 234.356C81.6438 234.13 75.3654 234.816 75.3654 234.816L75.031 233.696C75.031 233.696 76.703 233.754 76.703 232.266C76.703 230.778 75.7667 230.443 75.7667 230.443L72.4227 229.808Z" fill="#A2675F"/>
<path d="M121.68 203.984L122.399 209.744L117.943 234.799L122.466 256.426L145.907 263.357L155.128 259.377L151.976 198.667L143.6 192.782L140.381 190.616L128.309 208.891L121.68 203.984Z" fill="#FAFAFA"/>
<path d="M142.956 192.322L148.808 194.93L169.558 197.722L180.752 256.593L182.156 263.357L203.616 295.467C203.849 295.816 204.008 296.209 204.082 296.621C204.156 297.034 204.145 297.457 204.048 297.865C203.952 298.273 203.772 298.656 203.521 298.992C203.27 299.327 202.952 299.607 202.588 299.815L185.032 309.847C184.38 310.181 183.627 310.263 182.918 310.078C182.209 309.893 181.592 309.454 181.186 308.843L158.84 275.194L147.771 261.024C147.771 261.024 141.142 240.96 140.247 232.425C139.551 224.942 139.551 217.411 140.247 209.928C140.766 204.82 142.956 192.322 142.956 192.322Z" fill="#1B952B"/>
<path d="M169.524 197.722C170.875 198.431 172.048 199.437 172.956 200.663C173.863 201.889 174.482 203.304 174.766 204.803C176.087 211.792 180.066 223.981 181.562 236.998C183.652 255.206 178.753 260.824 176.446 263.967C174.139 267.11 159.826 273.782 159.826 273.782L149.067 259.453L160.98 249.688L159.935 224.399C159.935 224.399 155.755 218.647 157.845 210.104C159.935 201.56 166.038 197.204 169.549 197.722H169.524Z" fill="#1B952B"/>
<g opacity="0.3">
<path d="M180.626 256.117C178.996 260.531 177.132 264.26 173.336 266.358C169.29 268.598 163.664 271.759 159.826 273.782L162.635 278.146C167.041 277.468 175.175 272.335 177.817 268.749C180.374 265.07 181.383 260.533 180.626 256.117Z" fill="black"/>
</g>
<path d="M159.676 225.72C159.712 225.843 159.737 225.969 159.751 226.096C159.801 226.372 159.86 226.74 159.944 227.208C160.094 228.22 160.32 229.658 160.604 231.505C161.172 235.267 161.983 240.701 162.978 247.389V247.473L162.911 247.531L149.209 259.603V259.344L159.977 273.665L159.709 273.606C163.287 271.8 166.991 269.844 170.653 267.679C171.698 267.052 172.726 266.425 173.721 265.748C174.709 265.111 175.636 264.384 176.488 263.574C177.939 261.774 179.089 259.749 179.89 257.58C181.367 253.436 182.05 249.052 181.905 244.655C181.805 240.668 181.423 236.692 180.76 232.759C180.183 229.056 179.514 225.628 178.854 222.51C177.541 216.265 176.271 211.257 175.384 207.805C174.933 206.133 174.548 204.761 174.339 203.834C174.222 203.39 174.13 203.048 174.072 202.797C174.03 202.681 174.002 202.56 173.988 202.437C173.988 202.437 174.038 202.554 174.114 202.78C174.189 203.006 174.289 203.374 174.423 203.808C174.691 204.703 175.075 206.041 175.552 207.763C176.488 211.207 177.8 216.206 179.155 222.443C179.84 225.561 180.526 228.997 181.119 232.709C181.799 236.655 182.193 240.644 182.298 244.647C182.459 249.098 181.779 253.54 180.292 257.739C179.47 259.957 178.293 262.027 176.806 263.867C175.934 264.705 174.982 265.456 173.963 266.107C172.96 266.784 171.923 267.42 170.878 268.047C167.192 270.229 163.497 272.185 159.902 273.982L159.743 274.066L159.634 273.924L148.892 259.578L148.783 259.428L148.917 259.31L162.669 247.289L162.619 247.431C161.674 240.743 160.947 235.326 160.387 231.547C160.136 229.699 159.935 228.203 159.801 227.242C159.743 226.765 159.693 226.406 159.659 226.121C159.657 225.987 159.662 225.853 159.676 225.72Z" fill="#263238"/>
<path d="M144.486 247.347C144.48 247.151 144.497 246.955 144.536 246.762C144.586 246.344 144.661 245.792 144.745 245.09C144.962 243.602 145.255 241.537 145.623 239.012C146.35 233.879 147.495 226.807 148.607 218.948C149.126 215.153 149.619 211.541 150.062 208.248L150.196 208.457L146.651 207.102L146.3 206.969L146.609 206.768L150.171 204.461L150.104 204.619C149.677 201.668 149.335 199.252 149.084 197.513C148.984 196.677 148.892 196.067 148.833 195.574C148.789 195.348 148.769 195.118 148.775 194.888C148.844 195.107 148.894 195.33 148.925 195.557C149.009 196.05 149.126 196.686 149.268 197.488C149.552 199.219 149.945 201.626 150.421 204.569V204.678L150.338 204.736L146.802 207.077L146.76 206.751L150.321 208.08L150.472 208.139V208.298C150.037 211.592 149.552 215.211 149.042 219.007C147.939 226.84 146.743 233.913 145.932 239.071C145.514 241.579 145.171 243.652 144.921 245.132L144.628 246.804C144.598 246.989 144.55 247.171 144.486 247.347Z" fill="#263238"/>
<path d="M166.364 198.517C166.414 198.583 165.352 199.353 163.923 200.799C163.093 201.67 162.338 202.61 161.666 203.608C160.002 206.056 158.863 208.823 158.322 211.734C158.103 212.917 157.986 214.117 157.971 215.32C157.971 217.385 158.196 218.664 158.113 218.664C158 218.38 157.927 218.082 157.895 217.778C157.824 217.433 157.774 217.084 157.745 216.733C157.693 216.264 157.665 215.792 157.661 215.32C157.629 214.094 157.716 212.868 157.92 211.659C158.19 210.181 158.604 208.733 159.158 207.336C159.74 205.95 160.46 204.625 161.306 203.382C162.006 202.375 162.802 201.437 163.68 200.582C164.013 200.252 164.361 199.939 164.725 199.645C164.992 199.412 165.271 199.195 165.561 198.993C165.807 198.8 166.077 198.639 166.364 198.517Z" fill="#263238"/>
<path d="M106.448 244.814C106.331 244.814 105.946 240.768 105.612 235.752C105.277 230.736 105.068 226.673 105.194 226.656C105.319 226.64 105.695 230.711 106.03 235.719C106.364 240.726 106.565 244.806 106.448 244.814Z" fill="#263238"/>
<path d="M177.123 281.724L180.342 288.295L195.248 278.756L190.09 272.912L177.123 281.724Z" fill="#1B952B"/>
<path d="M177.123 281.732C177.405 281.486 177.704 281.26 178.018 281.055L180.643 279.207L189.973 272.753L190.123 272.653L190.24 272.787L195.415 278.639L195.582 278.831L195.365 278.965L194.713 279.383L180.426 288.42L180.275 288.512L180.208 288.353L177.901 283.471C177.658 282.936 177.458 282.501 177.307 282.158C177.233 282.016 177.171 281.868 177.123 281.715C177.228 281.859 177.318 282.013 177.391 282.175C177.566 282.518 177.792 282.953 178.076 283.479L180.484 288.219L180.258 288.161L194.47 278.965L195.122 278.547V278.873C193.3 276.808 191.561 274.835 189.973 273.021H190.24L180.902 279.249L178.177 281.03L177.433 281.506L177.123 281.732Z" fill="#263238"/>
<g opacity="0.3">
<path d="M177.232 282.016C177.299 282.142 180.576 292.107 180.576 292.107L194.479 282.242L193.283 280.06L180.342 288.336L177.232 282.016Z" fill="black"/>
</g>
<g opacity="0.3">
<path d="M149.193 197.681L151.701 205.832L149.193 206.969L152.495 208.59C152.495 208.59 147.295 237.014 146.643 239.606C145.991 242.198 145.188 243.034 145.188 243.034L150.263 208.314L146.718 206.969L150.263 204.636L149.193 197.681Z" fill="black"/>
</g>
<path d="M94.1921 242.097C94.1263 240.142 93.8088 238.203 93.2474 236.329C92.5483 234.506 91.6213 232.778 90.4886 231.188C90.9647 231.53 91.3729 231.958 91.6925 232.45C93.3942 234.739 94.333 237.506 94.376 240.358C94.4197 240.944 94.3574 241.533 94.1921 242.097Z" fill="#263238"/>
<g opacity="0.3">
<path d="M105.068 225.854C102.56 232.04 103.488 238.82 106.389 244.814C105.938 237.917 105.67 232.542 105.068 225.854Z" fill="black"/>
</g>
<path d="M141.142 197.472C141.029 197.766 140.883 198.046 140.707 198.308L139.411 200.473C138.325 202.312 136.903 204.87 135.457 207.788C134.487 209.752 133.66 211.633 132.949 213.222L132.857 213.456L132.665 213.305C131.56 212.423 130.52 211.462 129.555 210.43C129.168 210.058 128.825 209.643 128.535 209.192C128.953 209.526 129.347 209.889 129.714 210.279C130.725 211.241 131.786 212.151 132.891 213.004L132.606 213.08C133.25 211.466 134.061 209.577 135.031 207.596C136.256 205.095 137.618 202.664 139.11 200.314C139.687 199.411 140.18 198.7 140.532 198.216C140.704 197.944 140.909 197.694 141.142 197.472Z" fill="#263238"/>
<path d="M127.415 209C127.086 210.46 126.618 211.885 126.019 213.255L125.91 213.548L125.676 213.347L125.567 213.247C124.351 212.279 123.306 211.115 122.474 209.803C122.566 209.719 123.945 211.257 125.818 212.921L125.927 213.013L125.584 213.105C126.061 211.681 126.675 210.307 127.415 209Z" fill="#263238"/>
<path d="M129.873 251.778C129.826 251.65 129.803 251.514 129.806 251.377C129.806 251.051 129.739 250.666 129.697 250.198C129.63 249.103 129.53 247.64 129.413 245.859C129.187 242.198 128.928 237.14 128.702 231.547C128.476 225.954 128.359 220.888 128.359 217.218C128.359 215.379 128.359 213.874 128.418 212.871C128.418 212.402 128.418 212.035 128.476 211.692C128.476 211.554 128.493 211.416 128.527 211.282C128.55 211.418 128.55 211.556 128.527 211.692C128.527 212.01 128.527 212.402 128.527 212.871C128.527 213.966 128.577 215.429 128.61 217.209C128.685 220.88 128.861 225.937 129.078 231.53C129.296 237.123 129.505 242.122 129.655 245.842C129.722 247.632 129.772 249.094 129.814 250.19C129.814 250.658 129.814 251.026 129.814 251.368C129.846 251.503 129.866 251.64 129.873 251.778Z" fill="#263238"/>
<path d="M80.9248 364.68L83.09 385.087C83.09 385.087 63.026 394.149 63.1013 397.953L102.828 395.186L100.763 363.234L80.9248 364.68Z" fill="#1B952B"/>
<path d="M95.2538 382.512C95.6396 382.61 95.9777 382.842 96.2076 383.167C96.4375 383.492 96.5439 383.888 96.5078 384.284C96.4324 384.677 96.2091 385.026 95.8841 385.259C95.5591 385.493 95.157 385.592 94.7606 385.538C94.3432 385.451 93.9749 385.208 93.7309 384.858C93.487 384.509 93.3858 384.079 93.4481 383.657C93.5669 383.255 93.8375 382.915 94.2026 382.709C94.5678 382.503 94.9988 382.447 95.4043 382.554" fill="#E0E0E0"/>
<path d="M102.92 396.013L102.719 392.92L64.5308 395.829C64.5308 395.829 62.8087 396.724 63.1013 397.953L102.92 396.013Z" fill="#E0E0E0"/>
<path d="M82.4296 384.936C82.4296 385.129 83.4244 385.145 84.4276 385.705C85.4308 386.265 85.991 387.043 86.1582 386.951C86.3254 386.859 85.9659 385.764 84.7453 385.112C83.5248 384.46 82.3794 384.761 82.4296 384.936Z" fill="#263238"/>
<path d="M78.3833 386.951C78.3833 387.135 79.2193 387.411 79.9299 388.188C80.6405 388.966 80.8997 389.81 81.092 389.793C81.2843 389.777 81.3344 388.665 80.4232 387.72C79.5119 386.775 78.375 386.759 78.3833 386.951Z" fill="#263238"/>
<path d="M76.3686 392.084C76.5442 392.084 76.7448 391.123 76.1763 390.094C75.6078 389.066 74.6632 388.707 74.5963 388.874C74.5294 389.041 75.123 389.576 75.5828 390.42C76.0426 391.265 76.168 392.084 76.3686 392.084Z" fill="#263238"/>
<path d="M82.4547 380.23C82.5466 380.397 83.4161 380.071 84.5196 380.062C85.6231 380.054 86.5009 380.347 86.5929 380.179C86.6848 380.012 85.807 379.343 84.5112 379.385C83.2154 379.427 82.346 380.079 82.4547 380.23Z" fill="#263238"/>
<path d="M73.8522 282.309L55.4602 291.405C55.4602 291.405 40.0277 275.755 36.4663 277.109L52.8185 313.416L82.0785 300.417L73.8522 282.309Z" fill="#1B952B"/>
<path d="M62.0813 301.921C62.1338 302.319 62.0372 302.721 61.8103 303.052C61.5833 303.382 61.2421 303.617 60.8524 303.71C60.4577 303.778 60.0523 303.69 59.7206 303.466C59.3889 303.241 59.1565 302.898 59.0717 302.507C59.0095 302.085 59.1106 301.655 59.3546 301.306C59.5986 300.956 59.9669 300.713 60.3843 300.626C60.7955 300.611 61.197 300.753 61.5075 301.023C61.8179 301.293 62.0141 301.671 62.0563 302.08" fill="#E0E0E0"/>
<path d="M52.0661 313.793L54.9001 312.53L38.9409 277.711C38.9409 277.711 37.5113 276.415 36.4329 277.109L52.0661 313.793Z" fill="#E0E0E0"/>
<path d="M55.3683 290.736C55.1927 290.819 55.5104 291.739 55.3683 292.868C55.2261 293.996 54.6577 294.799 54.7998 294.932C54.9419 295.066 55.8531 294.339 56.0371 292.968C56.221 291.597 55.5187 290.619 55.3683 290.736Z" fill="#263238"/>
<path d="M52.0744 287.634C51.8905 287.634 51.9323 288.579 51.4558 289.515C50.9793 290.451 50.2603 290.986 50.3439 291.187C50.4275 291.388 51.4892 291.02 52.0577 289.841C52.6262 288.662 52.25 287.584 52.0744 287.634Z" fill="#263238"/>
<path d="M46.5485 287.525C46.5485 287.701 47.5768 287.525 48.3459 286.689C49.115 285.853 49.1233 284.792 48.9394 284.783C48.7555 284.775 48.4713 285.527 47.8275 286.246C47.1838 286.965 46.4816 287.342 46.5485 287.525Z" fill="#263238"/>
<path d="M59.7907 289.122C59.6653 289.273 60.2756 289.958 60.6267 291.012C60.9778 292.065 61.0447 292.968 61.237 292.985C61.4293 293.001 61.7302 291.973 61.237 290.769C60.7437 289.565 59.891 288.972 59.7907 289.122Z" fill="#263238"/>
<path d="M82.8309 293.879C80.8419 294.375 79.0373 295.432 77.6322 296.925C76.2271 298.417 75.2806 300.282 74.9056 302.298C73.5596 309.379 78.4335 380.597 78.4335 380.597L103.43 378.591L101.9 330.605L101.281 320.924L103.43 319.252L147.362 311.519L140.674 293.361L133.325 280.57L99.6763 288.93L82.8309 293.879Z" fill="#263238"/>
<path d="M165.528 281.882C165.528 281.882 147.353 255.607 142.036 251.786C137.656 248.635 131.068 248.643 126.988 250.474C122.909 252.305 59.2724 283.872 59.2724 283.872L68.6105 307.28L129.187 286.288L138.216 300.5L146.626 311.636L170.235 311.82C171.347 311.82 176.421 301.788 176.421 301.788L165.528 281.882Z" fill="#263238"/>
<path d="M74.6715 307.79C74.659 307.71 74.659 307.628 74.6715 307.548C74.6715 307.355 74.6715 307.121 74.6715 306.829C74.6715 306.536 74.6715 306.11 74.6715 305.65C74.6715 305.19 74.7802 304.655 74.8471 304.053C74.914 303.451 75.1062 302.808 75.24 302.08C75.3152 301.721 75.4657 301.361 75.5828 300.985C75.7041 300.587 75.855 300.199 76.0342 299.823C76.8081 298.011 78.0414 296.432 79.6123 295.242C80.5274 294.546 81.5696 294.034 82.6804 293.737L86.3003 293.118L94.2674 291.789L112.534 288.763L129.12 286.046H129.254L129.329 286.163C134.186 293.745 138.132 300.375 141.451 304.655C143.056 306.82 144.344 308.543 145.247 309.746C145.673 310.323 146.007 310.775 146.258 311.101L146.509 311.452L146.593 311.577C146.593 311.577 146.593 311.577 146.484 311.477L146.2 311.142L145.138 309.83C144.218 308.676 142.881 306.979 141.251 304.814C137.865 300.534 133.86 293.946 128.986 286.422L129.187 286.514L112.601 289.256L94.3342 292.249L86.3588 293.545L82.7556 294.13C81.6851 294.411 80.6779 294.893 79.7878 295.551C78.2504 296.704 77.0354 298.232 76.2599 299.99C76.0746 300.355 75.9208 300.736 75.8001 301.127C75.6603 301.48 75.5403 301.84 75.4406 302.206C75.2654 302.844 75.1259 303.491 75.0226 304.145L74.7969 305.725C74.7969 306.177 74.7468 306.561 74.73 306.896C74.7133 307.23 74.73 307.431 74.6799 307.615C74.6816 307.673 74.6788 307.732 74.6715 307.79Z" fill="#455A64"/>
<path d="M137.856 270.028C137.919 270.274 137.95 270.527 137.948 270.78C138.004 271.468 138.004 272.158 137.948 272.845C137.854 273.869 137.666 274.882 137.388 275.872C137.035 277.08 136.571 278.252 136 279.374C135.401 280.481 134.701 281.53 133.91 282.509C133.25 283.298 132.523 284.028 131.737 284.691C131.214 285.138 130.654 285.541 130.065 285.895C129.857 286.044 129.629 286.162 129.388 286.246C129.346 286.179 130.224 285.611 131.536 284.457C132.278 283.779 132.966 283.044 133.593 282.259C134.355 281.29 135.032 280.258 135.616 279.174C136.175 278.075 136.639 276.932 137.004 275.755C137.295 274.793 137.508 273.808 137.639 272.812C137.831 271.115 137.773 270.028 137.856 270.028Z" fill="#455A64"/>
<path d="M348.528 353.36L239.138 353.302C232.819 353.297 226.761 350.784 222.295 346.315C217.829 341.846 215.32 335.786 215.32 329.468L215.379 55.176C215.379 52.0457 215.996 48.9461 217.194 46.0543C218.392 43.1625 220.149 40.5352 222.363 38.3225C224.577 36.1099 227.206 34.3552 230.098 33.1588C232.991 31.9624 236.091 31.3478 239.221 31.35L348.612 31.4503C354.93 31.4547 360.988 33.9678 365.455 38.4371C369.921 42.9065 372.43 48.9663 372.43 55.2847L372.38 329.543C372.377 332.673 371.759 335.772 370.559 338.663C369.359 341.553 367.602 344.18 365.387 346.391C363.172 348.603 360.543 350.357 357.651 351.553C354.758 352.748 351.658 353.363 348.528 353.36Z" fill="#263238"/>
<path d="M348.495 41.1479H327.286C325.889 41.1808 324.563 41.7661 323.598 42.7753C322.632 43.7846 322.107 45.1355 322.136 46.5318V50.3774C322.151 51.0691 322.031 51.757 321.78 52.402C321.53 53.047 321.155 53.6363 320.676 54.1362C320.198 54.6362 319.626 55.037 318.993 55.3159C318.36 55.5947 317.678 55.746 316.986 55.7612H275.646C274.954 55.746 274.272 55.5947 273.639 55.3159C273.006 55.037 272.434 54.6362 271.956 54.1362C271.477 53.6363 271.102 53.047 270.852 52.402C270.602 51.757 270.481 51.0691 270.496 50.3774V46.4816C270.525 45.0853 270 43.7344 269.034 42.7252C268.069 41.7159 266.743 41.1307 265.346 41.0978H257.881H239.322C234.887 41.0978 230.635 42.8593 227.499 45.995C224.363 49.1306 222.602 53.3834 222.602 57.8178L222.552 325.513C222.552 329.941 224.307 334.187 227.434 337.321C230.561 340.456 234.803 342.222 239.23 342.233L348.411 342.292C352.846 342.292 357.099 340.53 360.234 337.395C363.37 334.259 365.131 330.006 365.131 325.572L365.19 57.8763C365.192 53.4448 363.435 49.1936 360.305 46.0569C357.174 42.9202 352.926 41.1546 348.495 41.1479Z" fill="white"/>
<path d="M365.182 57.8429C365.182 53.4084 363.42 49.1556 360.284 46.02C357.149 42.8844 352.896 41.1229 348.462 41.1229H327.252C325.856 41.1558 324.53 41.741 323.564 42.7502C322.599 43.7595 322.073 45.1104 322.103 46.5067V50.3523C322.118 51.044 321.997 51.732 321.747 52.3769C321.496 53.0219 321.121 53.6112 320.643 54.1111C320.165 54.6111 319.593 55.012 318.96 55.2908C318.326 55.5696 317.644 55.7209 316.953 55.7361H275.613C274.921 55.7209 274.239 55.5696 273.606 55.2908C272.973 55.012 272.4 54.6111 271.922 54.1111C271.444 53.6112 271.069 53.0219 270.819 52.3769C270.568 51.732 270.447 51.044 270.463 50.3523V46.4816C270.492 45.0853 269.966 43.7344 269.001 42.7252C268.035 41.7159 266.709 41.1307 265.313 41.0978H257.848H239.288C234.854 41.0978 230.601 42.8593 227.466 45.995C224.33 49.1306 222.568 53.3834 222.568 57.8178L222.518 83.4161H365.173L365.182 57.8429Z" fill="#F5F5F5"/>
<path d="M353.578 67.2478C353.578 67.3231 351.02 67.415 347.868 67.4401C345.964 67.5056 344.058 67.4721 342.158 67.3398C345.961 67.1141 349.772 67.0834 353.578 67.2478Z" fill="#263238"/>
<path d="M353.628 70.1655C351.732 70.3291 349.829 70.3933 347.926 70.3578C346.023 70.4233 344.117 70.3898 342.217 70.2575C342.217 70.1822 344.766 70.0986 347.926 70.0652C351.087 70.0317 353.628 70.0903 353.628 70.1655Z" fill="#263238"/>
<path d="M353.628 73.0915C353.628 73.1667 351.078 73.2503 347.926 73.2754C346.023 73.3409 344.117 73.3102 342.217 73.1835C346.016 72.9577 349.825 72.927 353.628 73.0915Z" fill="#263238"/>
<path d="M254.236 269.393L254.813 268.18C255.829 269.004 257.1 269.448 258.408 269.434C260.28 269.434 261.091 268.707 261.091 267.762C261.091 265.112 254.503 266.784 254.503 262.746C254.503 261.074 255.808 259.637 258.683 259.637C259.918 259.613 261.132 259.95 262.178 260.606L261.668 261.835C260.776 261.266 259.742 260.959 258.683 260.949C256.836 260.949 256.042 261.727 256.042 262.68C256.042 265.338 262.629 263.674 262.629 267.696C262.629 269.368 261.292 270.789 258.449 270.789C256.925 270.832 255.433 270.338 254.236 269.393Z" fill="#263238"/>
<path d="M263.9 266.517C263.891 265.95 263.999 265.388 264.217 264.865C264.435 264.342 264.759 263.87 265.167 263.478C265.576 263.086 266.061 262.782 266.593 262.586C267.124 262.389 267.69 262.305 268.256 262.337C268.92 262.298 269.582 262.441 270.172 262.75C270.761 263.059 271.254 263.524 271.6 264.092L270.471 264.82C270.23 264.448 269.897 264.144 269.505 263.938C269.112 263.732 268.674 263.629 268.231 263.641C267.489 263.681 266.791 264.003 266.281 264.542C265.77 265.081 265.485 265.795 265.485 266.538C265.485 267.28 265.77 267.994 266.281 268.533C266.791 269.072 267.489 269.395 268.231 269.434C268.674 269.448 269.114 269.347 269.506 269.141C269.899 268.934 270.231 268.629 270.471 268.256L271.6 268.975C271.253 269.543 270.76 270.007 270.171 270.318C269.582 270.628 268.92 270.774 268.256 270.739C267.687 270.77 267.118 270.683 266.584 270.484C266.05 270.284 265.564 269.977 265.154 269.58C264.745 269.184 264.423 268.707 264.207 268.18C263.991 267.653 263.887 267.086 263.9 266.517Z" fill="#263238"/>
<path d="M280.06 265.664V270.63H278.647V269.543C278.333 269.952 277.921 270.274 277.449 270.48C276.977 270.686 276.46 270.769 275.947 270.722C274.083 270.722 272.896 269.727 272.896 268.297C272.896 266.868 273.732 265.89 276.24 265.89H278.605V265.597C278.605 264.343 277.87 263.608 276.398 263.608C275.454 263.6 274.534 263.912 273.79 264.494L273.163 263.373C274.15 262.656 275.346 262.285 276.566 262.32C278.789 262.32 280.06 263.407 280.06 265.664ZM278.572 268.114V266.968H276.273C274.793 266.968 274.375 267.537 274.375 268.239C274.375 268.941 275.061 269.577 276.189 269.577C276.69 269.614 277.189 269.492 277.617 269.23C278.044 268.967 278.379 268.577 278.572 268.114Z" fill="#263238"/>
<path d="M290.644 265.89V270.63H289.147V266.065C289.147 264.452 288.311 263.658 286.932 263.658C286.571 263.63 286.209 263.683 285.871 263.813C285.533 263.942 285.228 264.145 284.978 264.406C284.728 264.668 284.539 264.981 284.424 265.325C284.309 265.668 284.272 266.032 284.315 266.391V270.63H282.827V262.395H284.24V263.641C284.593 263.2 285.047 262.849 285.563 262.62C286.08 262.39 286.644 262.287 287.208 262.32C289.256 262.32 290.644 263.474 290.644 265.89Z" fill="#263238"/>
<path d="M301.219 265.89V270.63H299.731V266.065C299.731 264.452 298.895 263.658 297.507 263.658C297.147 263.63 296.785 263.683 296.447 263.813C296.11 263.942 295.805 264.145 295.556 264.407C295.306 264.668 295.118 264.982 295.004 265.325C294.891 265.668 294.855 266.033 294.899 266.391V270.63H293.436V262.395H294.866V263.641C295.218 263.198 295.671 262.847 296.188 262.618C296.705 262.388 297.269 262.286 297.833 262.32C299.806 262.32 301.219 263.474 301.219 265.89Z" fill="#263238"/>
<path d="M303.727 259.845C303.719 259.643 303.771 259.444 303.878 259.272C303.984 259.1 304.139 258.964 304.324 258.881C304.508 258.798 304.713 258.772 304.912 258.807C305.111 258.842 305.296 258.936 305.441 259.076C305.586 259.217 305.686 259.398 305.728 259.596C305.769 259.793 305.751 259.999 305.674 260.186C305.598 260.373 305.467 260.533 305.299 260.646C305.131 260.758 304.933 260.817 304.73 260.815C304.601 260.819 304.471 260.796 304.35 260.749C304.229 260.702 304.119 260.631 304.025 260.541C303.932 260.45 303.858 260.342 303.806 260.223C303.755 260.104 303.728 259.975 303.727 259.845ZM303.986 262.395H305.483V270.63H303.986V262.395Z" fill="#263238"/>
<path d="M316.142 265.89V270.63H314.645V266.065C314.645 264.452 313.809 263.658 312.422 263.658C312.061 263.63 311.699 263.683 311.361 263.813C311.024 263.942 310.719 264.145 310.47 264.407C310.22 264.668 310.032 264.982 309.918 265.325C309.805 265.668 309.769 266.033 309.813 266.391V270.63H308.325V262.395H309.755V263.641C310.108 263.2 310.562 262.849 311.078 262.62C311.594 262.39 312.158 262.287 312.723 262.32C314.721 262.32 316.142 263.474 316.142 265.89Z" fill="#263238"/>
<path d="M326.826 262.395V269.518C326.826 272.419 325.354 273.74 322.554 273.74C321.141 273.799 319.752 273.365 318.625 272.511L319.335 271.366C320.238 272.074 321.356 272.452 322.504 272.436C324.452 272.436 325.338 271.533 325.338 269.669V269.016C324.968 269.434 324.51 269.765 323.996 269.985C323.483 270.204 322.928 270.308 322.37 270.287C321.831 270.312 321.294 270.227 320.789 270.038C320.284 269.849 319.823 269.56 319.433 269.187C319.043 268.815 318.733 268.367 318.521 267.872C318.309 267.376 318.2 266.843 318.2 266.304C318.2 265.765 318.309 265.231 318.521 264.736C318.733 264.24 319.043 263.792 319.433 263.42C319.823 263.048 320.284 262.758 320.789 262.569C321.294 262.38 321.831 262.295 322.37 262.32C322.947 262.297 323.522 262.407 324.05 262.642C324.577 262.877 325.044 263.23 325.413 263.674V262.395H326.826ZM325.363 266.299C325.395 265.731 325.255 265.166 324.962 264.678C324.669 264.189 324.236 263.8 323.719 263.561C323.202 263.322 322.625 263.244 322.064 263.336C321.502 263.428 320.98 263.687 320.568 264.08C320.155 264.472 319.869 264.979 319.748 265.535C319.626 266.092 319.675 266.672 319.887 267.2C320.1 267.729 320.466 268.181 320.938 268.499C321.411 268.817 321.968 268.985 322.537 268.983C322.903 269.011 323.271 268.962 323.618 268.839C323.964 268.716 324.28 268.522 324.546 268.269C324.813 268.016 325.023 267.71 325.164 267.371C325.304 267.032 325.372 266.667 325.363 266.299Z" fill="#263238"/>
<path d="M328.966 269.652C328.964 269.512 328.99 269.373 329.042 269.244C329.095 269.115 329.173 268.997 329.272 268.899C329.372 268.8 329.49 268.723 329.619 268.672C329.749 268.62 329.888 268.595 330.028 268.598C330.309 268.598 330.579 268.71 330.778 268.909C330.978 269.109 331.089 269.379 331.089 269.66C331.089 269.942 330.978 270.212 330.778 270.411C330.579 270.61 330.309 270.722 330.028 270.722C329.887 270.723 329.748 270.696 329.618 270.643C329.488 270.589 329.37 270.51 329.271 270.41C329.173 270.311 329.095 270.192 329.042 270.062C328.99 269.932 328.964 269.792 328.966 269.652Z" fill="#263238"/>
<path d="M332.494 269.652C332.492 269.512 332.518 269.373 332.57 269.244C332.623 269.115 332.701 268.997 332.8 268.899C332.9 268.8 333.018 268.723 333.147 268.672C333.277 268.62 333.416 268.595 333.556 268.598C333.837 268.598 334.107 268.71 334.306 268.909C334.506 269.109 334.617 269.379 334.617 269.66C334.617 269.942 334.506 270.212 334.306 270.411C334.107 270.61 333.837 270.722 333.556 270.722C333.415 270.723 333.276 270.696 333.146 270.643C333.016 270.589 332.898 270.51 332.799 270.41C332.701 270.311 332.623 270.192 332.57 270.062C332.518 269.932 332.492 269.792 332.494 269.652Z" fill="#263238"/>
<path d="M336.022 269.652C336.02 269.512 336.046 269.373 336.098 269.244C336.151 269.115 336.229 268.997 336.328 268.899C336.427 268.8 336.545 268.723 336.675 268.672C336.805 268.62 336.944 268.595 337.084 268.598C337.365 268.598 337.635 268.71 337.834 268.909C338.033 269.109 338.145 269.379 338.145 269.66C338.145 269.942 338.033 270.212 337.834 270.411C337.635 270.61 337.365 270.722 337.084 270.722C336.943 270.723 336.804 270.696 336.674 270.643C336.544 270.589 336.426 270.51 336.327 270.41C336.228 270.311 336.15 270.192 336.098 270.062C336.046 269.932 336.02 269.792 336.022 269.652Z" fill="#263238"/>
<path d="M336.08 284.508H248.894C241.22 284.508 235 290.728 235 298.402V301.353C235 309.027 241.22 315.247 248.894 315.247H336.08C343.754 315.247 349.975 309.027 349.975 301.353V298.402C349.975 290.728 343.754 284.508 336.08 284.508Z" fill="#EBEBEB"/>
<path d="M257.195 297.098L255.264 302.264H254.37L252.873 298.343L251.369 302.264H250.466L248.551 297.098H249.437L250.934 301.211L252.497 297.098H253.308L254.838 301.236L256.385 297.098H257.195Z" fill="#263238"/>
<path d="M265.848 297.098L263.917 302.264H263.022L261.534 298.343L260.021 302.264H259.16L257.237 297.098H258.123L259.628 301.211L261.183 297.098H261.977L263.507 301.236L265.045 297.098H265.848Z" fill="#263238"/>
<path d="M274.568 297.098L272.645 302.264H271.742L270.254 298.343L268.741 302.264H267.846L265.923 297.098H266.809L268.314 301.211L269.869 297.098H270.663L272.193 301.236L273.732 297.098H274.568Z" fill="#263238"/>
<path d="M274.76 301.654C274.758 301.566 274.773 301.479 274.805 301.397C274.838 301.316 274.886 301.241 274.948 301.179C275.009 301.116 275.083 301.067 275.164 301.034C275.245 301 275.332 300.984 275.42 300.985C275.598 300.985 275.768 301.056 275.893 301.181C276.019 301.306 276.089 301.476 276.089 301.654C276.089 301.831 276.019 302.001 275.893 302.127C275.768 302.252 275.598 302.323 275.42 302.323C275.333 302.323 275.246 302.305 275.166 302.272C275.085 302.238 275.012 302.188 274.95 302.126C274.889 302.064 274.84 301.99 274.808 301.909C274.775 301.828 274.759 301.741 274.76 301.654Z" fill="#263238"/>
<path d="M276.758 301.721L277.151 300.977C277.691 301.326 278.321 301.512 278.965 301.512C279.801 301.512 280.185 301.253 280.185 300.81C280.185 299.656 276.925 300.659 276.925 298.603C276.925 297.675 277.761 297.048 279.082 297.048C279.739 297.037 280.387 297.199 280.963 297.516L280.562 298.26C280.116 297.982 279.599 297.839 279.074 297.85C278.238 297.85 277.853 298.151 277.853 298.561C277.853 299.781 281.122 298.786 281.122 300.793C281.122 301.729 280.286 302.323 278.898 302.323C278.14 302.343 277.394 302.133 276.758 301.721Z" fill="#263238"/>
<path d="M282.133 295.501C282.133 295.419 282.15 295.337 282.182 295.261C282.214 295.186 282.261 295.117 282.321 295.06C282.38 295.003 282.45 294.959 282.527 294.93C282.604 294.901 282.686 294.887 282.769 294.891C282.854 294.881 282.941 294.889 283.023 294.915C283.105 294.94 283.181 294.983 283.246 295.041C283.31 295.098 283.361 295.168 283.397 295.247C283.432 295.325 283.45 295.411 283.45 295.497C283.45 295.583 283.432 295.668 283.397 295.747C283.361 295.825 283.31 295.896 283.246 295.953C283.181 296.01 283.105 296.053 283.023 296.079C282.941 296.105 282.854 296.113 282.769 296.103C282.687 296.106 282.606 296.093 282.529 296.065C282.453 296.036 282.383 295.992 282.324 295.936C282.265 295.88 282.217 295.813 282.184 295.738C282.152 295.663 282.134 295.583 282.133 295.501ZM282.3 297.098H283.237V302.264H282.3V297.098Z" fill="#263238"/>
<path d="M287.918 301.963C287.595 302.21 287.196 302.337 286.79 302.323C286.568 302.353 286.343 302.332 286.13 302.263C285.918 302.193 285.724 302.077 285.563 301.921C285.402 301.766 285.278 301.576 285.201 301.366C285.124 301.156 285.096 300.932 285.118 300.709V297.867H284.282V297.098H285.118V295.944H286.054V297.073H287.584V297.842H286.104V300.642C286.094 300.755 286.109 300.868 286.147 300.974C286.185 301.08 286.247 301.176 286.326 301.256C286.406 301.336 286.502 301.397 286.609 301.436C286.715 301.474 286.828 301.489 286.94 301.478C287.207 301.48 287.466 301.391 287.676 301.227L287.918 301.963Z" fill="#263238"/>
<path d="M293.528 299.999H289.348C289.409 300.441 289.636 300.844 289.985 301.124C290.333 301.404 290.775 301.54 291.221 301.503C291.499 301.514 291.775 301.463 292.032 301.357C292.289 301.25 292.52 301.089 292.709 300.885L293.227 301.487C292.845 301.873 292.359 302.141 291.828 302.258C291.297 302.374 290.743 302.335 290.234 302.144C289.725 301.953 289.282 301.619 288.959 301.182C288.635 300.745 288.445 300.224 288.412 299.681C288.394 299.334 288.449 298.987 288.572 298.663C288.696 298.338 288.885 298.042 289.129 297.795C289.373 297.547 289.665 297.353 289.988 297.224C290.31 297.096 290.656 297.036 291.003 297.048C291.35 297.041 291.694 297.107 292.014 297.24C292.334 297.373 292.623 297.571 292.863 297.822C293.102 298.072 293.288 298.37 293.406 298.696C293.525 299.022 293.575 299.368 293.553 299.714C293.545 299.79 293.536 299.907 293.528 299.999ZM289.348 299.321H292.692C292.692 298.878 292.516 298.453 292.202 298.139C291.889 297.826 291.463 297.649 291.02 297.649C290.577 297.649 290.151 297.826 289.838 298.139C289.524 298.453 289.348 298.878 289.348 299.321Z" fill="#263238"/>
<path d="M302.565 297.098L300.634 302.264H299.739L298.251 298.343L296.78 302.264H295.885L293.963 297.098H294.849L296.354 301.211L297.909 297.098H298.703L300.233 301.236L301.771 297.098H302.565Z" fill="#263238"/>
<path d="M308.016 299.999H303.836C303.896 300.441 304.124 300.844 304.473 301.124C304.821 301.404 305.263 301.54 305.709 301.503C305.987 301.514 306.264 301.464 306.521 301.358C306.777 301.251 307.008 301.089 307.197 300.885L307.715 301.487C307.333 301.873 306.847 302.141 306.316 302.258C305.785 302.374 305.231 302.335 304.722 302.144C304.213 301.953 303.77 301.619 303.447 301.182C303.123 300.745 302.933 300.224 302.9 299.681C302.882 299.334 302.937 298.987 303.06 298.663C303.184 298.338 303.373 298.042 303.617 297.795C303.86 297.547 304.153 297.353 304.476 297.224C304.798 297.096 305.144 297.036 305.491 297.048C305.839 297.04 306.184 297.104 306.505 297.237C306.826 297.37 307.116 297.568 307.356 297.819C307.597 298.069 307.783 298.367 307.902 298.694C308.021 299.02 308.071 299.368 308.049 299.714C308.041 299.79 308.024 299.907 308.016 299.999ZM303.836 299.321H307.18C307.18 298.878 307.004 298.453 306.69 298.139C306.377 297.826 305.951 297.649 305.508 297.649C305.064 297.649 304.639 297.826 304.326 298.139C304.012 298.453 303.836 298.878 303.836 299.321Z" fill="#263238"/>
<path d="M314.687 299.681C314.706 300.03 314.652 300.379 314.528 300.706C314.404 301.033 314.213 301.33 313.968 301.579C313.722 301.828 313.427 302.022 313.102 302.15C312.777 302.278 312.428 302.337 312.079 302.323C311.723 302.338 311.368 302.266 311.046 302.113C310.724 301.96 310.445 301.73 310.231 301.445V302.281H309.32V295.049H310.256V297.892C310.471 297.621 310.746 297.404 311.06 297.259C311.373 297.114 311.717 297.044 312.062 297.056C312.411 297.039 312.76 297.096 313.086 297.222C313.412 297.348 313.708 297.54 313.955 297.788C314.203 298.035 314.395 298.331 314.521 298.657C314.647 298.983 314.704 299.332 314.687 299.681ZM313.742 299.681C313.726 299.341 313.611 299.014 313.41 298.739C313.21 298.465 312.933 298.255 312.615 298.136C312.297 298.017 311.95 297.994 311.619 298.069C311.288 298.145 310.986 298.316 310.75 298.561C310.515 298.807 310.357 299.115 310.295 299.45C310.234 299.784 310.272 300.129 310.404 300.442C310.537 300.755 310.758 301.022 311.041 301.211C311.323 301.4 311.655 301.501 311.995 301.503C312.234 301.515 312.473 301.475 312.695 301.387C312.918 301.298 313.119 301.163 313.284 300.991C313.45 300.818 313.577 300.611 313.656 300.385C313.735 300.16 313.764 299.919 313.742 299.681Z" fill="#263238"/>
<path d="M315.431 301.654C315.429 301.566 315.444 301.479 315.477 301.397C315.509 301.316 315.557 301.241 315.619 301.179C315.681 301.116 315.754 301.067 315.836 301.034C315.917 301 316.004 300.984 316.092 300.985C316.269 300.985 316.439 301.056 316.565 301.181C316.69 301.306 316.76 301.476 316.76 301.654C316.76 301.831 316.69 302.001 316.565 302.127C316.439 302.252 316.269 302.323 316.092 302.323C316.004 302.323 315.918 302.305 315.837 302.272C315.756 302.238 315.683 302.188 315.622 302.126C315.56 302.064 315.512 301.99 315.479 301.909C315.446 301.828 315.43 301.741 315.431 301.654Z" fill="#263238"/>
<path d="M317.488 299.681C317.48 299.324 317.547 298.97 317.683 298.641C317.819 298.311 318.021 298.013 318.278 297.766C318.535 297.519 318.84 297.327 319.175 297.203C319.509 297.08 319.866 297.027 320.221 297.048C320.638 297.024 321.054 297.115 321.423 297.309C321.793 297.503 322.103 297.794 322.32 298.151L321.609 298.611C321.461 298.375 321.253 298.182 321.006 298.052C320.76 297.921 320.483 297.857 320.205 297.867C319.744 297.898 319.312 298.103 318.997 298.441C318.681 298.778 318.506 299.223 318.506 299.685C318.506 300.147 318.681 300.592 318.997 300.929C319.312 301.267 319.744 301.472 320.205 301.503C320.483 301.513 320.758 301.45 321.004 301.321C321.25 301.192 321.459 301.001 321.609 300.768L322.32 301.211C322.103 301.568 321.793 301.86 321.424 302.056C321.055 302.252 320.639 302.344 320.221 302.323C319.865 302.342 319.509 302.288 319.174 302.164C318.84 302.039 318.535 301.847 318.278 301.599C318.021 301.351 317.819 301.052 317.683 300.722C317.547 300.392 317.48 300.038 317.488 299.681Z" fill="#263238"/>
<path d="M322.98 299.681C322.972 299.149 323.122 298.626 323.411 298.18C323.701 297.733 324.117 297.383 324.606 297.173C325.095 296.963 325.635 296.903 326.158 297.002C326.681 297.1 327.163 297.351 327.543 297.724C327.923 298.097 328.183 298.574 328.291 299.095C328.399 299.616 328.35 300.157 328.149 300.65C327.949 301.143 327.606 301.565 327.165 301.863C326.724 302.161 326.204 302.321 325.672 302.323C325.319 302.339 324.966 302.282 324.635 302.156C324.304 302.029 324.003 301.836 323.751 301.588C323.498 301.34 323.299 301.043 323.167 300.715C323.034 300.387 322.971 300.035 322.98 299.681ZM327.403 299.681C327.403 299.22 327.219 298.777 326.893 298.451C326.567 298.125 326.125 297.942 325.664 297.942C325.203 297.942 324.76 298.125 324.434 298.451C324.108 298.777 323.925 299.22 323.925 299.681C323.925 300.142 324.108 300.584 324.434 300.91C324.76 301.237 325.203 301.42 325.664 301.42C326.125 301.42 326.567 301.237 326.893 300.91C327.219 300.584 327.403 300.142 327.403 299.681Z" fill="#263238"/>
<path d="M338.221 299.288V302.256H337.293V299.388C337.293 298.377 336.799 297.883 335.955 297.883C335.735 297.874 335.515 297.913 335.311 297.998C335.108 298.083 334.926 298.212 334.778 298.376C334.63 298.54 334.52 298.734 334.456 298.945C334.393 299.156 334.376 299.379 334.408 299.597V302.256H333.472V299.388C333.472 298.377 332.979 297.883 332.134 297.883C331.914 297.874 331.694 297.913 331.491 297.998C331.287 298.083 331.105 298.212 330.957 298.376C330.809 298.54 330.7 298.734 330.636 298.945C330.572 299.156 330.556 299.379 330.588 299.597V302.256H329.652V297.089H330.546V297.858C330.751 297.584 331.021 297.364 331.332 297.218C331.642 297.072 331.984 297.005 332.327 297.022C332.686 296.998 333.046 297.075 333.363 297.245C333.681 297.415 333.945 297.671 334.124 297.984C334.35 297.671 334.65 297.419 334.997 297.251C335.345 297.084 335.728 297.005 336.114 297.022C336.41 297 336.707 297.045 336.984 297.154C337.261 297.262 337.509 297.432 337.711 297.649C337.914 297.867 338.065 298.127 338.153 298.411C338.241 298.694 338.264 298.994 338.221 299.288Z" fill="#263238"/>
<path d="M337.911 305.658C337.911 305.775 318.19 305.876 293.879 305.876C269.568 305.876 249.839 305.775 249.839 305.658C249.839 305.541 269.551 305.441 293.879 305.441C318.207 305.441 337.911 305.533 337.911 305.658Z" fill="#263238"/>
<path d="M245.901 184.656V189.83H251.076V184.656V179.472H245.901V184.656Z" fill="#263238"/>
<path d="M251.076 153.598H245.901V158.773H251.076V153.598Z" fill="#263238"/>
<path d="M283.061 210.58H277.886V215.755H283.061V210.58Z" fill="#263238"/>
<path d="M251.076 163.948V169.123H245.901V174.298H251.076V179.472H256.251H261.434V184.656H266.609V179.472H271.784V174.298V169.123H266.609V174.298H261.434H256.251V169.123V163.948V158.773H251.076V163.948Z" fill="#263238"/>
<path d="M261.434 153.598H256.251V158.773H261.434H266.609V153.598H261.434Z" fill="#263238"/>
<path d="M284.725 195.206H287.5V190.031H284.725H281.941V195.206H284.725Z" fill="#263238"/>
<path d="M271.784 158.773H266.609V163.948H271.784V158.773Z" fill="#263238"/>
<path d="M308.016 179.472H302.841V184.647H308.016V179.472Z" fill="#263238"/>
<path d="M313.191 122.541H308.016V127.716H313.191V122.541Z" fill="#263238"/>
<path d="M282.133 163.948V158.773H287.308V153.598H282.133V148.423H276.958V153.598H271.784V158.773H276.958V163.948V169.123V174.298V179.472H282.133V174.298V169.123H287.308V163.948H282.133Z" fill="#263238"/>
<path d="M308.016 215.705H313.191V210.53H308.016H302.841V215.705H308.016Z" fill="#263238"/>
<path d="M302.841 122.541H297.666V127.716H302.841V122.541Z" fill="#263238"/>
<path d="M301.545 163.948V158.773H296.37V153.598H291.196V158.773V163.948H286.021V169.123H291.196H296.37V163.948H301.545Z" fill="#263238"/>
<path d="M330.755 153.598H325.58V158.773H330.755V153.598Z" fill="#263238"/>
<path d="M277.109 179.472H271.934V184.647H277.109V179.472Z" fill="#263238"/>
<path d="M297.666 148.423V143.249H302.841V138.065H308.016H313.191V132.891H308.016V127.716H302.841V132.891H297.666V138.065H292.483V143.249H287.308V148.423H292.483H297.666Z" fill="#263238"/>
<path d="M297.666 184.656V179.472H302.841V174.298H297.666H292.483V179.472H287.308V184.656H292.483H297.666Z" fill="#263238"/>
<path d="M313.191 205.355V200.172H308.016H302.841V194.997H297.666V200.172H292.483V205.355H287.308H282.133V210.53H287.308H292.483H297.666V205.355H302.841V210.53H308.016V205.355H313.191Z" fill="#263238"/>
<path d="M292.483 127.716V122.541H287.308H282.133V127.716H276.958V132.89H282.133H287.308V127.716H292.483Z" fill="#263238"/>
<path d="M292.483 132.891H287.308V138.065H292.483V132.891Z" fill="#263238"/>
<path d="M305.424 153.598H300.249V158.773V163.948V169.123H305.424H310.599V163.948H305.424V158.773H310.599V153.598H315.774V148.423H310.599V143.249H305.424V148.423V153.598Z" fill="#263238"/>
<path d="M287.308 138.065H282.133V143.24H287.308V138.065Z" fill="#263238"/>
<path d="M302.841 189.83V195.005H308.016H313.191V189.83H318.366H323.54V184.656H318.366H313.191H308.016V189.83H302.841Z" fill="#263238"/>
<path d="M330.755 169.123H325.58V174.298H330.755V169.123Z" fill="#263238"/>
<path d="M313.191 174.298H308.016V179.472H313.191V174.298Z" fill="#263238"/>
<path d="M326.132 158.773H320.957H315.774V163.948H320.957V169.123H326.132V163.948V158.773Z" fill="#263238"/>
<path d="M323.54 174.298H318.366V179.472H323.54V174.298Z" fill="#263238"/>
<path d="M266.609 205.455H282.142V184.647H261.334V189.83H256.259V195.005H261.334V200.18H256.259V205.355H261.334V205.455H261.434V210.53H256.259V220.879H261.434V215.688H266.609V205.455ZM278.154 188.627V201.568H265.213V188.627H278.154Z" fill="#263238"/>
<path d="M333.89 184.656H339.065V179.472H333.89H328.715H323.54V184.656H328.715H333.89Z" fill="#263238"/>
<path d="M333.89 163.948H339.065V158.773V153.598H333.89V158.773V163.948Z" fill="#263238"/>
<path d="M292.684 190.031H287.5V195.206V200.381H292.684V195.206V190.031Z" fill="#263238"/>
<path d="M344.24 184.656H339.065V189.83H344.24V184.656Z" fill="#263238"/>
<path d="M344.248 174.298V169.123H339.065V174.298V179.472H344.248V174.298Z" fill="#263238"/>
<path d="M251.076 210.53H245.901V215.705V220.879H251.076V215.705V210.53Z" fill="#263238"/>
<path d="M344.248 148.423V122.507H318.332V148.423H344.248ZM322.245 144.536V126.42H340.361V144.536H322.245Z" fill="#263238"/>
<path d="M336.482 130.307H326.132V140.657H336.482V130.307Z" fill="#263238"/>
<path d="M344.248 195.005H318.332V220.879H344.248V195.005ZM322.245 217V198.884H340.361V217H322.245Z" fill="#263238"/>
<path d="M336.482 202.763H326.132V213.113H336.482V202.763Z" fill="#263238"/>
<path d="M245.843 122.541V148.457H271.7V122.541H245.843ZM267.838 126.42V144.536H249.722V126.42H267.838Z" fill="#263238"/>
<path d="M263.95 130.307H253.601V140.657H263.95V130.307Z" fill="#263238"/>
<path d="M238.461 140.582V122.19C238.343 120.502 238.862 118.832 239.915 117.508C240.546 116.812 241.323 116.264 242.19 115.902C243.057 115.541 243.993 115.376 244.931 115.418H264.26C264.413 115.418 264.559 115.357 264.668 115.249C264.776 115.141 264.837 114.994 264.837 114.841C264.837 114.688 264.776 114.542 264.668 114.433C264.559 114.325 264.413 114.264 264.26 114.264H245.165C243.548 114.183 241.944 114.588 240.559 115.427C239.564 116.089 238.746 116.986 238.177 118.039C237.609 119.091 237.307 120.266 237.299 121.462C237.249 124.489 237.299 127.523 237.299 130.541V140.573C237.316 140.715 237.384 140.846 237.491 140.941C237.598 141.036 237.737 141.089 237.88 141.089C238.023 141.089 238.161 141.036 238.268 140.941C238.375 140.846 238.444 140.715 238.461 140.573V140.582Z" fill="#1B952B"/>
<path d="M262.588 229.624H244.196C242.509 229.738 240.84 229.219 239.514 228.169C238.819 227.538 238.271 226.761 237.91 225.894C237.549 225.027 237.383 224.092 237.424 223.153V203.8C237.424 203.647 237.363 203.5 237.255 203.392C237.147 203.284 237 203.223 236.847 203.223C236.694 203.223 236.547 203.284 236.439 203.392C236.331 203.5 236.27 203.647 236.27 203.8V222.919C236.19 224.536 236.595 226.14 237.432 227.526C238.095 228.521 238.992 229.338 240.045 229.905C241.097 230.472 242.273 230.771 243.468 230.778C246.495 230.828 249.521 230.778 252.547 230.778H262.579C262.732 230.778 262.879 230.717 262.987 230.609C263.095 230.501 263.156 230.354 263.156 230.201C263.156 230.048 263.095 229.901 262.987 229.793C262.879 229.685 262.732 229.624 262.579 229.624H262.588Z" fill="#1B952B"/>
<path d="M351.07 203.616V222.008C351.188 223.696 350.669 225.366 349.615 226.69C348.985 227.386 348.208 227.935 347.341 228.296C346.474 228.658 345.538 228.823 344.599 228.78H325.246C325.093 228.78 324.946 228.84 324.838 228.949C324.73 229.057 324.669 229.204 324.669 229.357C324.669 229.51 324.73 229.656 324.838 229.764C324.946 229.873 325.093 229.933 325.246 229.933H344.365C345.982 230.015 347.586 229.61 348.971 228.771C349.966 228.109 350.783 227.211 351.35 226.159C351.917 225.107 352.217 223.931 352.224 222.735C352.282 219.709 352.224 216.683 352.224 213.656V203.624C352.224 203.471 352.163 203.325 352.055 203.217C351.946 203.108 351.8 203.048 351.647 203.048C351.494 203.048 351.347 203.108 351.239 203.217C351.131 203.325 351.07 203.471 351.07 203.624V203.616Z" fill="#1B952B"/>
<path d="M325.58 115.426H343.972C345.661 115.311 347.331 115.833 348.654 116.889C349.352 117.518 349.902 118.295 350.264 119.162C350.625 120.03 350.789 120.967 350.744 121.905V141.284C350.744 141.437 350.805 141.584 350.913 141.692C351.021 141.8 351.168 141.861 351.321 141.861C351.474 141.861 351.62 141.8 351.729 141.692C351.837 141.584 351.897 141.437 351.897 141.284V122.14C351.979 120.52 351.574 118.913 350.735 117.525C350.073 116.53 349.176 115.713 348.123 115.146C347.071 114.579 345.895 114.279 344.7 114.273C341.673 114.223 338.647 114.273 335.621 114.273H325.589C325.436 114.273 325.289 114.334 325.181 114.442C325.073 114.55 325.012 114.697 325.012 114.85C325.012 115.003 325.073 115.149 325.181 115.258C325.289 115.366 325.436 115.426 325.589 115.426H325.58Z" fill="#1B952B"/>
</svg>
